<svg id="Capa_1" data-name="Capa 1" xmlns="http://www.w3.org/2000/svg" viewBox="0 0 24.67 23.67"><title>Sin título-6</title><path d="M21,1.17H5A4.33,4.33,0,0,0,.67,5.49v9.88A4.33,4.33,0,0,0,5,19.7h10.2l4.88,4.88A0.87,0.87,0,0,0,21.55,24V19.66a4.33,4.33,0,0,0,3.78-4.29V5.49A4.33,4.33,0,0,0,21,1.17Zm2.59,14.2A2.6,2.6,0,0,1,21,18H20.69a0.87,0.87,0,0,0-.86.86v3l-3.66-3.66A0.86,0.86,0,0,0,15.55,18H5A2.6,2.6,0,0,1,2.4,15.37V5.49A2.6,2.6,0,0,1,5,2.9H21A2.6,2.6,0,0,1,23.6,5.49v9.88Z" transform="translate(-0.67 -1.17)" style="fill:#666"/><path d="M19.37,7.29H6.63A0.86,0.86,0,1,0,6.63,9H19.37A0.86,0.86,0,0,0,19.37,7.29Z" transform="translate(-0.67 -1.17)" style="fill:#666"/><path d="M19.37,12.14H6.63a0.86,0.86,0,0,0,0,1.73H19.37A0.86,0.86,0,0,0,19.37,12.14Z" transform="translate(-0.67 -1.17)" style="fill:#666"/></svg>