<svg id="Capa_1" data-name="Capa 1" xmlns="http://www.w3.org/2000/svg" viewBox="0 0 175.25 120.59"><title>Sin título-1</title><rect width="175.25" height="120.59" style="fill:none"/><path d="M49.37,74.66H33.11c0.31-.88.61-1.74,0.91-2.6A97.68,97.68,0,0,1,39.6,59.39c2.18-4.3,4.49-8.52,7-12.61A95.9,95.9,0,0,1,52.78,38a64.39,64.39,0,0,1,6.08-6.73,43.42,43.42,0,0,1,9.27-6.86,31.27,31.27,0,0,1,9.69-3.38,29.18,29.18,0,0,1,3.38-.39c0.07,0,3.07,0,4.48,0a58,58,0,0,1,7.19,1.18c3.25,0.63,6.48,1.38,9.69,2.17,5.89,1.44,11.71,3.14,17.44,5.15,4.3,1.51,8.5,3.25,12.64,5.16a14.75,14.75,0,0,1,6.32,5.81,23.53,23.53,0,0,1,2.89,7.12,41.83,41.83,0,0,1,1,11.48,68.82,68.82,0,0,1-.62,6.89c-0.41,2.93-1,5.83-1.65,8.71a0.3,0.3,0,0,1-.37.27H68.7c0-.13.09-0.26,0.14-0.39,0.77-2.08,1.59-4.14,2.46-6.19a107.92,107.92,0,0,1,10.29-19,63.5,63.5,0,0,1,12-13.31,40.63,40.63,0,0,1,12.06-6.93c0.71-.25,1.43-0.47,2.22-0.73h-0.2a29.24,29.24,0,0,0-6,1.92,37.61,37.61,0,0,0-9.16,5.89,58.24,58.24,0,0,0-7.79,8.16A94.69,94.69,0,0,0,75.66,58a143.83,143.83,0,0,0-7.52,16.51,0.17,0.17,0,0,0,0,.17H49.55a0.36,0.36,0,0,0,.19-0.28c0.16-.4.3-0.81,0.46-1.21l0.79-2a0.42,0.42,0,0,0-.5.32c-0.36,1-.74,1.93-1.11,2.9,0,0.09-.16.2,0,0.32m61.09-12.23c0.08-.07.23-0.1,0.13-0.26h0c0.18,0.05.19-.13,0.25-0.21a54,54,0,0,1,9.3-10.29,20.89,20.89,0,0,1,4-2.62,9.65,9.65,0,0,1,6-1.16,5.14,5.14,0,0,1,3.35,1.86,12.07,12.07,0,0,1,1.95,3.8A26.45,26.45,0,0,1,136.5,59c0.13,1.31.17,2.63,0.18,3.95s-0.05,2.92-.17,4.37q-0.08,1-.16,2.06c-0.07.87-.19,1.73-0.31,2.59s-0.23,1.65-.37,2.48c0,0.16,0,.22.16,0.22l1,0c0.37,0,.74,0,1.11,0a0.34,0.34,0,0,0,.42-0.33A84.18,84.18,0,0,0,140,62.76a43.38,43.38,0,0,0-.17-8.25,20.82,20.82,0,0,0-2.1-7.22,11.61,11.61,0,0,0-3-3.69,5.79,5.79,0,0,0-2-1.19A9.54,9.54,0,0,0,130,42.1a0.25,0.25,0,0,0-.3.23,1.58,1.58,0,0,1-1.78,1.22,1.71,1.71,0,0,1-1.09-.71,0.33,0.33,0,0,0-.44-0.12,18.94,18.94,0,0,0-2,.8,26.54,26.54,0,0,0-7,5.18,59.33,59.33,0,0,0-7.12,8.74,135.48,135.48,0,0,0-9.67,17,0.25,0.25,0,0,0,0,.24c0.54,0,1.09,0,1.64,0a2.93,2.93,0,0,0,.9,0,5.8,5.8,0,0,0,1.19,0c0.12,0,.11,0,0.1-0.16a3,3,0,0,1,.32-1.87c0.41-.69.76-1.41,1.16-2.1a72.67,72.67,0,0,1,9.6-13.56,26.48,26.48,0,0,1,5.61-4.76,10.62,10.62,0,0,1,5.95-1.79c0.29,0,.31.07,0.2,0.32-3.74,8-7.58,15.86-11.76,23.59a0.67,0.67,0,0,0-.14.34c0.63,0,1.26,0,1.89,0a0.4,0.4,0,0,0,.42-0.26c2.58-4.91,5.24-9.77,7.95-14.61,1.53-2.75,3.09-5.49,4.63-8.24a0.28,0.28,0,0,1,.47-0.14,4.1,4.1,0,0,1,1,.81A9.32,9.32,0,0,1,133.64,56a33,33,0,0,1,1.08,8,74.24,74.24,0,0,1-.23,10c-0.07.67-.06,0.67,0.64,0.67a0.24,0.24,0,0,0,.29-0.26c0.12-1,.26-2,0.37-3.07a67.21,67.21,0,0,0,.45-9.32,32.29,32.29,0,0,0-.78-6.61,14.5,14.5,0,0,0-2.07-5,4.71,4.71,0,0,0-2.94-2,8.24,8.24,0,0,0-4.84.45,21,21,0,0,0-6,3.77,55.38,55.38,0,0,0-7.46,7.88c-0.56.7-1.11,1.41-1.66,2.12-0.09-.07,0-0.13,0-0.2m-8.54-36.61a0.64,0.64,0,0,0-.28,0,36.06,36.06,0,0,0-6.46,2.6,50.2,50.2,0,0,0-12.55,9.46,78.15,78.15,0,0,0-7.85,9.37,0.47,0.47,0,0,0-.16.31l1.16-.37a0.61,0.61,0,0,0,.3-0.23c1.42-1.86,2.9-3.68,4.46-5.43A69.74,69.74,0,0,1,91.87,31.1a36.2,36.2,0,0,1,9.05-4.91,6.09,6.09,0,0,0,1-.36,0.14,0.14,0,0,0,.18-0.1c-0.08.05-.16,0-0.19,0.09m0.46-.13a8.7,8.7,0,0,0,1.14-.25l-0.15-.06q-3.9-1-7.84-1.84A3.88,3.88,0,0,0,93.4,24a40.9,40.9,0,0,1,4.8,1.21,32.83,32.83,0,0,1-5.36-.44,4.13,4.13,0,0,0-2.79.34,1.86,1.86,0,0,0-.53.27c2.1,0.24,4.17.46,6.21,0.89-2.61.1-5.21,0-7.81-.11a0.85,0.85,0,0,0-.47.08L85.16,27.4a0.17,0.17,0,0,0-.14.16c2,0.11,3.93.26,5.88,0.53a1,1,0,0,1-.31.07c-1.65.11-3.29,0.16-4.94,0.21a6,6,0,0,0-2.31.12,14.81,14.81,0,0,0-2,1.24,0.2,0.2,0,0,0-.16.18c2.57,0.09,5.14.22,7.69,0.5a7,7,0,0,1-.78.09c-2.5.16-5,.26-7.52,0.26a1.88,1.88,0,0,0-1.33.45c-0.46.4-1,.76-1.44,1.13a49.53,49.53,0,0,0,9.84-.56,21.91,21.91,0,0,1-5.55,1.27,40.43,40.43,0,0,1-5.26.27,0.54,0.54,0,0,0-.38.14c-1,.89-2,1.8-3,2.75a0.25,0.25,0,0,0-.15.23l9.06-.69a0.11,0.11,0,0,1-.08.1,68,68,0,0,1-9.71,1.57,0.87,0.87,0,0,0-.62.3c-0.53.59-1.08,1.16-1.61,1.74s-1.1,1.25-1.69,1.93c3.56-.22,7-0.64,10.46-1.16a31.65,31.65,0,0,1-3.32,1,45.51,45.51,0,0,1-7.74,1.13,0.45,0.45,0,0,0-.35.19c-0.41.53-.83,1.06-1.24,1.59L65,46.09c0.87-.1,1.66-0.17,2.45-0.28,2.71-.37,5.43-0.77,8.12-1.29a0.65,0.65,0,0,0,.4-0.24c0.9-1.09,1.8-2.17,2.75-3.22a63,63,0,0,1,9.17-8.42,44.26,44.26,0,0,1,8-4.76,32.93,32.93,0,0,1,6.27-2.2,0.19,0.19,0,0,1,.21,0,0.2,0.2,0,0,0-.2,0c0.09,0,.15,0,0.2,0M122.2,39.1l-0.49-.43a30.56,30.56,0,0,0-9.78-5.05,0.26,0.26,0,0,0-.22,0l-1.41.78,0.08,0.08,0.24,0.09a31.25,31.25,0,0,1,6.1,3.15,7.09,7.09,0,0,1,1.89,1.72l-0.05.05a11.86,11.86,0,0,0-1.72-1.11,74.32,74.32,0,0,0-7.42-3.27,0.31,0.31,0,0,0-.31,0l-1,.69a0.3,0.3,0,0,0,.23.14,41,41,0,0,1,4.21,1.79,18,18,0,0,1,4,2.49,2.5,2.5,0,0,1,.69.82,12,12,0,0,0-1.65-1,83,83,0,0,0-8.27-3.45,0.24,0.24,0,0,0-.27,0l-1.17.88a70.51,70.51,0,0,1,9.85,5.18,0.08,0.08,0,0,1-.08,0c-3.3-1.36-6.62-2.69-9.86-4.2a1.13,1.13,0,0,0-1-.1,11.69,11.69,0,0,0-1.38,1.15,3.17,3.17,0,0,1,.68.14,39,39,0,0,1,5.19,2.13,17.63,17.63,0,0,1,4.14,2.73,4.1,4.1,0,0,1,.88,1.08,14,14,0,0,0-3-1.94,49,49,0,0,0-5.76-2.46,19.81,19.81,0,0,0-2.27-.75,1.25,1.25,0,0,0-1.41.46,14.35,14.35,0,0,1-1,1L101.15,42a39.43,39.43,0,0,1,7.2,3.11,9.1,9.1,0,0,1,2.21,1.65,0.92,0.92,0,0,1,.29.49,7.15,7.15,0,0,0-2-1.26,68.83,68.83,0,0,0-6.49-2.55,6.37,6.37,0,0,0-2.22-.6,0.55,0.55,0,0,0-.45.18l-2.06,2.31a0.62,0.62,0,0,0-.2.31,5.4,5.4,0,0,1,2.14.55c0.39,0.13.77,0.29,1.15,0.45a31.37,31.37,0,0,1,6.12,3.13A5.56,5.56,0,0,1,108.17,51a13.08,13.08,0,0,0-1.89-1.06c-2.11-1-4.29-1.81-6.47-2.61a8.36,8.36,0,0,0-2.7-.77,0.67,0.67,0,0,0-.72.29,5.12,5.12,0,0,1-.42.54l-1.67,2.15,0.87,0.07a1.73,1.73,0,0,1,.63.13c3.25,1.57,6.46,3.21,9.55,5.09a0.17,0.17,0,0,1,.14.16l-0.22-.08c-3.27-1.21-6.45-2.65-9.59-4.17a2.06,2.06,0,0,0-.71-0.2c-0.34,0-.67,0-1-0.09a0.44,0.44,0,0,0-.49.21c-0.63.93-1.27,1.84-1.9,2.76a0.21,0.21,0,0,0-.09.23l1.1,0.05a1.1,1.1,0,0,1,.44.1c3.43,1.69,6.83,3.44,10.12,5.4a0.65,0.65,0,0,1,.31.23,0.68,0.68,0,0,1-.38-0.1c-3.52-1.37-7-3-10.35-4.62a0.67,0.67,0,0,0-.28-0.09c-0.45,0-.91,0-1.36-0.06a0.4,0.4,0,0,0-.42.22c-0.57.95-1.16,1.88-1.75,2.82-0.19.31-.18,0.31,0.19,0.33a4.3,4.3,0,0,1,1.22.12c2.38,0.89,4.74,1.83,7.06,2.89,0.54,0.25,1.07.51,1.6,0.77a0.84,0.84,0,0,1-.33,0,80.71,80.71,0,0,1-7.9-2.47,5.74,5.74,0,0,0-1.9-.36,2.06,2.06,0,0,1-.42,0,0.28,0.28,0,0,0-.36.19L87,61c-0.19.33-.19,0.34,0.2,0.35h0.88a0.92,0.92,0,0,1,.38.07c3,1.32,5.93,2.71,8.77,4.31a0.42,0.42,0,0,1,.23.19l-0.17-.05a78.83,78.83,0,0,1-7.68-2.92,6,6,0,0,0-3-.7H86.53a0.24,0.24,0,0,0-.3.17c-0.36.7-.73,1.4-1.11,2.1-0.11.2,0,.25,0.15,0.23a3,3,0,0,1,1.48.3,90.46,90.46,0,0,1,8.58,4l0.84,0.46a0.27,0.27,0,0,1-.2,0c-3.22-1-6.35-2.24-9.47-3.5a4.16,4.16,0,0,0-1.71-.3,0.35,0.35,0,0,0-.37.23c-0.33.69-.67,1.38-1,2.08a0.24,0.24,0,0,0-.06.24h1.4a1.25,1.25,0,0,1,.59.14c2,1,3.92,2,5.85,3.05,1.11,0.61,2.21,1.24,3.28,1.93a1.57,1.57,0,0,1-.3-0.09c-2.74-1-5.41-2.21-8-3.49a4.53,4.53,0,0,0-2.57-.59,0.54,0.54,0,0,1-.19,0,0.54,0.54,0,0,0-.73.43,5,5,0,0,1-.28.62L81,73.06a2.72,2.72,0,0,1,2.18.32c0.92,0.34,1.81.73,2.69,1.15a1.08,1.08,0,0,0,.47.11H96.57A0.41,0.41,0,0,0,97,74.36c0.7-1.43,1.4-2.86,2.13-4.28A132.08,132.08,0,0,1,110.06,52a55.27,55.27,0,0,1,9.33-10.21,23.28,23.28,0,0,1,6.64-4,0.74,0.74,0,0,0,.36-0.31,1.47,1.47,0,0,1,1.35-.7,0.26,0.26,0,0,0,.23-0.05c0.31-.28.47-0.25,0.71,0.08a0.3,0.3,0,0,0,.32.22,12,12,0,0,1,2.76-.11,6.32,6.32,0,0,1,3.78,1.36,13.22,13.22,0,0,1,3.71,5A29.14,29.14,0,0,1,141.38,54a62.61,62.61,0,0,1-.44,9.91c-0.26,2.25-.6,4.49-1,6.71-0.24,1.28-.51,2.55-0.77,3.82,0,0.08-.08.18,0.07,0.19s0.2,0,.23-0.11,0-.14.06-0.22c0.51-2.16,1-4.34,1.33-6.53a67.14,67.14,0,0,0,1-10.22,39.8,39.8,0,0,0-1-9.84,22.09,22.09,0,0,0-3.73-8.27,12.38,12.38,0,0,0-4.37-3.83c-3.07-1.5-6.22-2.84-9.43-4.05a0.2,0.2,0,0,0-.24,0c0.27,0.15.55,0.28,0.81,0.44a14.75,14.75,0,0,1,3.82,2.95,1.32,1.32,0,0,1,.29.48,15.93,15.93,0,0,0-2.68-1.72c-1.92-1-3.9-1.93-5.9-2.8a0.88,0.88,0,0,0-.81.05,25.48,25.48,0,0,1,3.87,1.93c1.32,0.81,2.94,2.23,3.14,2.85a12.6,12.6,0,0,0-2.07-1.45,39.65,39.65,0,0,0-6.34-2.84,0.36,0.36,0,0,0-.25,0l-1.21.42,1.8,0.74c0.59,0.25,1.15.55,1.72,0.84s1.08,0.64,1.62,1a17.86,17.86,0,0,1,1.55,1.14,12.1,12.1,0,0,1,1.35,1.27,0.72,0.72,0,0,1-.24-0.11,36.68,36.68,0,0,0-8.91-4.2,0.44,0.44,0,0,0-.34-0.06L113,33l0.27,0.1a23.46,23.46,0,0,1,6.92,3.79A10,10,0,0,1,122.25,39l-0.05.06M50.47,44.52l0.16,0c2.61,0.58,5.2,1.25,7.77,2a2,2,0,0,0,.66.16l3.24-.27a0.56,0.56,0,0,0,.42-0.26c0.76-1,1.52-2,2.29-3l0.53-.65H65a4.77,4.77,0,0,1-1-.07c-2.2-.56-4.4-1.14-6.58-1.79-0.92-.28-1.84-0.54-2.75-0.88,2.34,0.31,4.66.76,7,1.24a14.82,14.82,0,0,0,4.46.56,0.61,0.61,0,0,0,.44-0.21c1-1.15,2-2.3,3-3.39a0.34,0.34,0,0,0,.16-0.24,5.37,5.37,0,0,1-.71,0,3.94,3.94,0,0,1-.7-0.14c-2.63-.66-5.22-1.42-7.79-2.27l-2-.69a0.4,0.4,0,0,1,.27,0c2.72,0.49,5.42,1.07,8.1,1.72a8.48,8.48,0,0,0,3.74.37,0.61,0.61,0,0,0,.36-0.17c0.79-.81,1.64-1.56,2.47-2.32l0.93-.82a107.45,107.45,0,0,1-11.71-2.47,2.64,2.64,0,0,1,.63,0L64.71,31c2,0.23,4,.51,5.92.82a25,25,0,0,0,4.65.5,0.53,0.53,0,0,0,.37-0.08c0.58-.5,1.19-0.94,1.81-1.39,0,0,.12-0.06.08-0.15-4.14-.67-8.27-1.41-12.34-2.46a0.88,0.88,0,0,1,.26,0c1.45,0.12,2.89.26,4.34,0.43,2.64,0.31,5.26.69,7.88,1.12a2,2,0,0,0,1.22,0c0.77-.41,1.48-0.93,2.24-1.42a101.8,101.8,0,0,1-10.67-2.78c2.66,0.27,5.28.73,7.9,1.24a18.61,18.61,0,0,0,4.14.61A1,1,0,0,0,83,27.34c0.82-.46,1.65-0.91,2.52-1.29,0.06,0,.17,0,0.14-0.14a81.62,81.62,0,0,1-8.88-2.15c0.63,0,1.25.06,1.87,0.13,2.6,0.3,5.17.72,7.74,1.18a2.47,2.47,0,0,0,1.19.05c0.68-.21,1.35-0.48,2-0.72,0.06,0,.13,0,0.13-0.12C89,24.13,88.27,24,87.54,23.81s-1.43-.35-2.14-0.54a18.13,18.13,0,0,1-2.09-.67,25,25,0,0,1,3.34.28c1.36,0.19,2.72.41,4.08,0.62l1.51,0.26h0.13l1.57-.5-0.24-.07c-1.61-.33-3.23-0.63-4.85-0.94a31.06,31.06,0,0,0-9.23-.35,29.92,29.92,0,0,0-9.53,2.77,41,41,0,0,0-10.85,7.77A75.13,75.13,0,0,0,49.16,44.86,161.06,161.06,0,0,0,39.46,62a95.49,95.49,0,0,0-5.09,12.26c-0.09.25-.09,0.36,0.23,0.35,1,0,2,0,2.93,0,0.07,0,.17.06,0.22-0.08l-2.09-1.08a0.26,0.26,0,0,1,.23,0l2.82,1.07a1.05,1.05,0,0,0,.38.08h8.17a0.32,0.32,0,0,0,.35-0.25c0.35-.89.71-1.77,1.06-2.65a0.28,0.28,0,0,0,0-.26c-0.73.08-1.45,0.19-2.19,0.23A1.31,1.31,0,0,1,46,71.63q-2.9-1.13-5.76-2.4l-1.51-.69a0.16,0.16,0,0,1,.14,0c2.44,0.67,4.85,1.45,7.25,2.27a1,1,0,0,0,.47.06L49,70.5a0.41,0.41,0,0,0,.34-0.29q1.07-2.49,2.22-4.95a0.19,0.19,0,0,0,0-.21l-0.25,0c-0.85.1-1.7,0.2-2.56,0.24a1.13,1.13,0,0,1-.51-0.09L43.9,63.41c-1-.43-2-0.88-3.05-1.33a0.23,0.23,0,0,1,.22,0q3.69,1.1,7.32,2.36a1.1,1.1,0,0,0,.51.07c1-.13,2-0.26,3-0.42a0.52,0.52,0,0,0,.42-0.33c0.93-2,1.93-3.88,3-5.78a0.46,0.46,0,0,0,.11-0.3q-1.37.15-2.73,0.22a2.06,2.06,0,0,1-.83,0C49.4,57,47,56.16,44.63,55.19a0.15,0.15,0,0,1-.14-0.13l0.22,0c2.42,0.56,4.82,1.24,7.21,1.92a1.19,1.19,0,0,0,.48,0c1.1-.12,2.2-0.25,3.3-0.36a0.49,0.49,0,0,0,.43-0.27c0.8-1.45,1.66-2.88,2.54-4.28a0.2,0.2,0,0,0,.07-0.24c-1.1,0-2.21.11-3.31,0.09a2.65,2.65,0,0,1-.89-0.16q-2.73-1-5.43-2.09l-1.64-.66a0.56,0.56,0,0,1,.3,0q3.48,0.93,6.92,2a2.11,2.11,0,0,0,.7.11c1.29,0,2.58-.14,3.86-0.27a0.41,0.41,0,0,0,.33-0.23c0.67-1.06,1.38-2.1,2.11-3.13a0.27,0.27,0,0,0,.09-0.23c-0.55,0-1.1.06-1.64,0.11A4.5,4.5,0,0,1,58,47.25c-0.43-.17-0.88-0.3-1.33-0.45-2.07-.7-4.13-1.42-6.16-2.28m67.91-14.09-1.1-.5c-1.12-.47-2.23-0.95-3.32-1.5a13.39,13.39,0,0,0-2-.68,0.45,0.45,0,0,0-.22,0,34.47,34.47,0,0,0-6.94,1.9,42.41,42.41,0,0,0-13.69,8.89A70.84,70.84,0,0,0,79.5,53.16a117,117,0,0,0-9.37,19.08c-0.3.78-.6,1.57-0.9,2.36l0.09,0h7.91a0.22,0.22,0,0,0,.24-0.13l0.26-.6c-1.69-.12-3.34-0.25-5.07-0.51,0.81-.11,1.54-0.12,2.26-0.15l2.83-.08a0.47,0.47,0,0,0,.49-0.32c0.54-1.17,1.11-2.32,1.67-3.49a0.43,0.43,0,0,0,.09-0.3c-2.32-.07-4.65-0.17-7-0.4a6.82,6.82,0,0,1,1.32-.15c2-.15,4-0.26,6-0.28A0.35,0.35,0,0,0,80.62,68c0.35-.68.71-1.37,1.06-2.05a0.82,0.82,0,0,0,.16-0.4c-1.77-.1-3.54-0.16-5.3-0.4,1.82-.21,3.65-0.33,5.47-0.38a0.44,0.44,0,0,0,.45-0.27c0.19-.39.41-0.76,0.62-1.14l0.74-1.32c-1.81-.15-3.58-0.29-5.35-0.56a1.31,1.31,0,0,1,.59-0.1c1.67-.09,3.34-0.15,5-0.13a0.28,0.28,0,0,0,.3-0.13q0.69-1.17,1.41-2.34c0.08-.13.06-0.19-0.1-0.2l-1.36-.13c-1.36-.14-2.72-0.32-4.17-0.56A3.47,3.47,0,0,1,81,57.81c1.69-.06,3.39-0.06,5.08,0a0.41,0.41,0,0,0,.42-0.22c0.64-1,1.29-2,1.93-3a0.18,0.18,0,0,0,.06-0.22C86.24,54.24,84,54,81.59,53.74a2.24,2.24,0,0,1,.71-0.09c2.19-.09,4.38-0.08,6.57-0.06a0.45,0.45,0,0,0,.44-0.19c0.7-1,1.43-2,2.15-3a0.25,0.25,0,0,0,.1-0.23c-2.06-.27-4.12-0.54-6.15-1,2.22,0,4.43,0,6.64.2a0.33,0.33,0,0,0,.32-0.16l1.51-1.88,0.83-1c-2-.24-4-0.46-5.91-0.86,2.09-.09,4.18,0,6.26.06a0.59,0.59,0,0,0,.54-0.21c0.4-.47.82-0.93,1.24-1.38L98,42.69c-2.2-.23-4.36-0.48-6.49-0.9a2.06,2.06,0,0,1,.5-0.05c2,0,4,0,5.92.11a1.45,1.45,0,0,0,1.45-.53,4.22,4.22,0,0,1,.51-0.5,6.72,6.72,0,0,0,.73-0.71c-2.45-.36-4.87-0.76-7.26-1.3,1.26,0,2.52.06,3.77,0.15s2.72,0.23,4.08.35a0.53,0.53,0,0,0,.32,0c0.48-.38.94-0.78,1.45-1.2-2.27-.32-4.46-0.66-6.62-1.16,1.09,0,2.18,0,3.27.07,1.36,0.07,2.71.16,4.06,0.29a0.45,0.45,0,0,0,.32,0l1.38-1c-2.08-.31-4.08-0.65-6-1.14a1.46,1.46,0,0,1,.35,0c2.17,0,4.34.18,6.5,0.39a0.48,0.48,0,0,0,.32,0l1-.64c-2.31-.37-4.52-0.76-6.7-1.32a0.28,0.28,0,0,1,.13,0c2.3,0,4.59.25,6.88,0.49a1.85,1.85,0,0,0,1,.06c0.51-.23,1-0.55,1.53-0.86-2.64-.67-5.27-1-8-1.41l0.34,0a29.08,29.08,0,0,1,4.26.08,21.35,21.35,0,0,1,4.33.69,0.42,0.42,0,0,0,.31,0l1.25-.59c-2.61-.77-5.19-1.31-7.79-1.81a2.43,2.43,0,0,1,.39,0,27.77,27.77,0,0,1,8.28,1.14,2.94,2.94,0,0,0,1.71-.36c-2.22-.81-4.47-1.49-6.69-2.24,0.52,0,1,.09,1.56.16a35.11,35.11,0,0,1,7.07,1.73,1.21,1.21,0,0,0,1-.06m-7.62-3a0.33,0.33,0,0,0-.23-0.11l-5.6-1.54a1,1,0,0,0-.41,0A23.57,23.57,0,0,0,97.86,28a49.15,49.15,0,0,0-11.22,8,83.49,83.49,0,0,0-8.7,9.36c-0.39.48-.77,1-1.18,1.5a7.2,7.2,0,0,1,.9-0.18l-0.9.41a1,1,0,0,0-.45.36,107.76,107.76,0,0,0-6.6,9.78c-0.39.65-.76,1.3-1.19,2l1.25-.55,0,0.09C69.4,59,69,59.3,68.56,59.54a1.1,1.1,0,0,0-.45.45c-1.85,3.37-3.54,6.82-5.14,10.32,0,0.06-.11.12,0,0.21l1-.4a5.78,5.78,0,0,1-.94.64,0.81,0.81,0,0,0-.38.42q-0.67,1.58-1.36,3.16c-0.11.24-.07,0.31,0.21,0.31,1.57,0,3.15,0,4.72,0a0.48,0.48,0,0,0,.54-0.37A128.25,128.25,0,0,1,77.51,52.85a78.33,78.33,0,0,1,11-13.93,50,50,0,0,1,5.92-5,35.66,35.66,0,0,1,7.17-4,28.41,28.41,0,0,1,4.94-1.57c1.39-.3,2.81-0.47,4.19-0.83m-42,27.08c-0.63.24-1.16,0.5-1.72,0.7a49.63,49.63,0,0,1-8.79,2.12,0.47,0.47,0,0,0-.39.27c-1,1.84-1.93,3.7-2.83,5.59a0.46,0.46,0,0,0-.08.29A5.88,5.88,0,0,0,56,63.28a71.22,71.22,0,0,0,8.94-2.6,0.57,0.57,0,0,0,.35-0.25c1.08-2,2.23-3.91,3.46-5.91m-4,7-0.22.07a49.6,49.6,0,0,1-9.87,3,0.49,0.49,0,0,0-.39.33c-0.71,1.58-1.42,3.16-2.07,4.76a0.31,0.31,0,0,0-.07.27h0.07a62.88,62.88,0,0,0,9.55-2.81,0.44,0.44,0,0,0,.26-0.22c0.87-1.78,1.77-3.55,2.75-5.36m-6.16-5.16,1.72-.27a70.58,70.58,0,0,0,8.44-1.81,0.71,0.71,0,0,0,.42-0.32q1.06-1.64,2.14-3.26c0.38-.56.77-1.12,1.16-1.69a0.61,0.61,0,0,0-.38.08c-1.56.52-3.12,1-4.72,1.44-1.85.46-3.72,0.82-5.6,1.11A0.81,0.81,0,0,0,61,52c-0.53.92-1.09,1.83-1.63,2.74-0.29.49-.56,1-0.87,1.54m3.2,10.89-0.35.19a29,29,0,0,1-5,2.24,36.36,36.36,0,0,1-4.49,1.26,0.41,0.41,0,0,0-.37.26q-0.6,1.61-1.24,3.21c-0.08.22,0,.26,0.19,0.26h2.12a1.07,1.07,0,0,0,.35-0.07q2.75-1,5.48-2A2.57,2.57,0,0,0,60,71c0.49-1.26,1.12-2.46,1.71-3.74M75.64,44.71l-0.38.12a44.24,44.24,0,0,1-5,1.33c-1.91.42-3.83,0.72-5.77,0.95a0.5,0.5,0,0,0-.39.24c-0.66,1-1.33,2-2,3a0.33,0.33,0,0,0-.11.27c0.89-.15,1.78-0.27,2.66-0.44,2.75-.53,5.47-1.24,8.17-2a0.47,0.47,0,0,0,.3-0.18c0.77-1.1,1.62-2.14,2.49-3.28M67,59.84a1.58,1.58,0,0,0,.9-0.51,107.4,107.4,0,0,1,7.42-11.42c0-.06.15-0.11,0.07-0.23-0.36.16-.71,0.33-1.07,0.47a1.1,1.1,0,0,0-.54.44q-1.76,2.54-3.36,5.18-1.82,3-3.43,6.06m61.31-22.48a1.22,1.22,0,0,0-1.37.06,1.92,1.92,0,0,0-.58.81,4.2,4.2,0,0,0-.16,2.52,3.74,3.74,0,0,0,1.09,2.13,1.14,1.14,0,0,0,1.25.32,1.35,1.35,0,0,0,.85-1.07,0.17,0.17,0,0,0-.06-0.23c-0.05.09-.1,0.19-0.16,0.28a0.79,0.79,0,0,1-1.3.18,1.87,1.87,0,0,1-.44-0.56A4.52,4.52,0,0,1,127,39.2a2.07,2.07,0,0,1,.32-0.94A0.81,0.81,0,0,1,128.6,38l0.54,0.41a5,5,0,0,0-.78-1.43v0.39ZM61.63,71.1a0.82,0.82,0,0,0,.76-0.63c1.14-2.53,2.35-5,3.61-7.49,0.48-.93,1-1.85,1.47-2.83a2.08,2.08,0,0,0-1.13.94c-0.81,1.65-1.65,3.27-2.42,4.93s-1.55,3.34-2.28,5.08M129.3,40.52a2.93,2.93,0,0,0-.44-1.71,0.64,0.64,0,0,0-1.19.13,2.88,2.88,0,0,0,.39,2.75,0.59,0.59,0,0,0,1.07-.13,2.51,2.51,0,0,0,.19-1M130,39.09c0.15-.54-0.21-0.43-0.44-0.47-0.07,0-.16,0-0.19.07a0.16,0.16,0,0,0,0,.2,0.3,0.3,0,0,1,.13.33c0,0.31,0,.63.06,0.94s0.05,0.71.08,1.07c0,0.13-.25.25-0.08,0.38a0.75,0.75,0,0,0,.47,0h0.1c0.2,0,.17-0.14.1-0.25a0.26,0.26,0,0,1-.12-0.14c0-.62-0.05-1.24-0.07-1.85a0.18,0.18,0,0,1,.15-0.22,0.21,0.21,0,0,1,.16.22c0,0.09,0,.17,0,0.26,0,0.52,0,1,.05,1.56s0.07,0.47.51,0.42c0.18,0,.17-0.17.1-0.21a0.43,0.43,0,0,1-.15-0.48,14.14,14.14,0,0,0-.06-1.72,0.55,0.55,0,0,0-.38-0.52c-0.26-.06-0.28.22-0.51,0.42M53.79,63.73c0.45-.06.45-0.06,0.6-0.37q1.36-2.86,2.85-5.66a0.23,0.23,0,0,0,.08-0.21,0.5,0.5,0,0,0-.61.35c-0.37.75-.77,1.48-1.14,2.23-0.6,1.2-1.18,2.41-1.78,3.66m26,9.34a0.72,0.72,0,0,0,.95-0.52c0.43-1.06.93-2.09,1.4-3.14a0.46,0.46,0,0,0,.09-0.3c-0.59,0-.59,0-0.84.48l-0.14.3-1.46,3.19M67.38,41.43a0.84,0.84,0,0,0,.94-0.33c0.83-1,1.71-2,2.62-3l0.51-.56a1,1,0,0,0-.81.14c-1.14,1.17-2.18,2.44-3.26,3.72M55.46,74.63h2.79a0.19,0.19,0,0,0,.2-0.13l0.68-1.6c-1.26.57-2.43,1.21-3.67,1.72M71.71,36.56a1.06,1.06,0,0,0,1.16-.43c0.82-.82,1.68-1.61,2.54-2.38l0.49-.44a1.54,1.54,0,0,0-.9.13c-1.14,1-2.18,2-3.3,3.12M57.47,56.43a0.51,0.51,0,0,0,.64-0.32c0.74-1.37,1.54-2.71,2.35-4a0.45,0.45,0,0,0,.14-0.31,0.54,0.54,0,0,0-.66.32c-0.52.92-1.07,1.83-1.6,2.75-0.3.52-.58,1.06-0.88,1.59M133.34,39.8c0.11-.37-0.16-0.37-0.35-0.45s-0.18,0-.13.12a1.24,1.24,0,0,1,.05.85,3.22,3.22,0,0,1-.21,1.41,0.12,0.12,0,0,0,.08.18,0.84,0.84,0,0,0,.49.1,0.1,0.1,0,0,0,0-.09,1,1,0,0,1,0-.71c0-.35.06-0.69,0.1-1,0-.07,0-0.2.13-0.19a0.17,0.17,0,0,1,.1.18c0,0.09,0,.17,0,0.26,0,0.48-.07,1-0.14,1.45,0,0.32.18,0.35,0.37,0.42s0.12-.09.1-0.13a1.08,1.08,0,0,1,0-.72,4.18,4.18,0,0,0,0-1.54c-0.11-.35-0.23-0.38-0.56-0.12M63.8,46.2a0.74,0.74,0,0,0,.83-0.36c0.33-.51.71-1,1.07-1.47l1.5-1.94a0.92,0.92,0,0,0-.69.11c-0.94,1.17-1.84,2.38-2.71,3.65M53.73,64.73a0.45,0.45,0,0,0-.53.31c-0.71,1.6-1.41,3.21-2.07,4.83,0,0.07-.12.14-0.05,0.22a0.41,0.41,0,0,0,.48-0.34c0.24-.6.49-1.2,0.75-1.8l1.42-3.22m7-14a0.73,0.73,0,0,0,.77-0.38c0.46-.75,1-1.49,1.46-2.23l0.63-.93a0.78,0.78,0,0,0-.83.39c-0.41.69-.88,1.34-1.31,2-0.24.37-.47,0.74-0.72,1.14m29.49,3.79a0.51,0.51,0,0,0-.7.27c-0.56.94-1.15,1.85-1.73,2.78a0.32,0.32,0,0,0-.1.28,0.6,0.6,0,0,0,.56-0.1c0.66-1.06,1.31-2.13,2-3.22m45.37-13.06a0.44,0.44,0,0,1,.11.44c-0.08.47-.15,0.94-0.24,1.41a0.5,0.5,0,0,0,.26.41s0.07,0.08.11,0-0.05-.19,0-0.29a2.44,2.44,0,0,1,0-.26c0.05-.29.12-0.57,0.16-0.86a2,2,0,0,0,0-1c-0.07-.19-0.17-0.32-0.38-0.11a0.48,0.48,0,0,0-.36-0.55,5.15,5.15,0,0,1-.34,2.14,0.12,0.12,0,0,0,0,.17,1.4,1.4,0,0,0,.42.29,6.25,6.25,0,0,1,.27-1.84M93.1,50.37a0.49,0.49,0,0,0-.68.22c-0.61.91-1.24,1.8-1.86,2.7-0.06.09-.21,0.2-0.13,0.3a0.5,0.5,0,0,0,.37,0A0.23,0.23,0,0,0,91,53.46l0.52-.78,1.6-2.32m38.58-12.17a2.85,2.85,0,0,0-.57.61c-0.1.18,0.09,0.26,0.13,0.39a1.39,1.39,0,0,1,0,.23q0,0.71,0,1.43a1.63,1.63,0,0,0,.07.58,0.33,0.33,0,0,0,.36.25c0.17,0,.25-0.16.13-0.26a0.39,0.39,0,0,1-.11-0.38,7.49,7.49,0,0,1,0-1,1.15,1.15,0,0,1,.17-0.92,0.11,0.11,0,0,0,0-.17,0.28,0.28,0,0,1-.11-0.31,1.27,1.27,0,0,0,0-.48M84,65.64c-0.59-.07-0.59-0.07-0.83.42l-0.35.69L82.09,68.2c0.29-.1.58,0.13,0.74-0.18,0.39-.78.77-1.57,1.16-2.38m-0.35,9s0-.06,0-0.09c-0.85-.21-1.59-0.81-2.57-0.61a0.69,0.69,0,0,0-.61.51c-0.05.16,0,.19,0.14,0.19h3m0.18-9.89a0.91,0.91,0,0,0,.69-0.14c0.44-.79.84-1.6,1.28-2.44-0.24.06-.49-0.16-0.63,0.08-0.45.8-.87,1.61-1.34,2.49M135,41.86a2.08,2.08,0,0,0-.11-1.45,0.38,0.38,0,0,0-.34-0.26,0.28,0.28,0,0,0-.26.22,3,3,0,0,0-.11,2,0.57,0.57,0,0,0,.2.29,0.25,0.25,0,0,0,.3,0,0.38,0.38,0,0,0,.2-0.28c0-.19-0.15,0-0.22-0.06a0.42,0.42,0,0,1-.17-0.19,1.09,1.09,0,0,1,0-.64L135,41.86M93.3,49.44A0.51,0.51,0,0,0,94,49.19a6.31,6.31,0,0,1,.47-0.63L96,46.51a0.43,0.43,0,0,0-.63.18,3.88,3.88,0,0,1-.32.41c-0.6.77-1.23,1.51-1.79,2.34M85.72,61.22l0,0.07c0.19-.09.45,0.13,0.61-0.16,0.4-.73.82-1.45,1.22-2.18,0-.05.09-0.1,0-0.17a0.55,0.55,0,0,0-.53.06l-1.36,2.38M99.26,42.83a0.49,0.49,0,0,0-.6.12c-0.73.78-1.42,1.57-2.11,2.39a0.27,0.27,0,0,0-.14.26,0.49,0.49,0,0,0,.59-0.2c0.34-.43.72-0.84,1.08-1.25l1.18-1.31M60.17,74.59a0.37,0.37,0,0,0,.56-0.26c0.35-.87.73-1.73,1.09-2.6a0.37,0.37,0,0,0,.07-0.31,1.12,1.12,0,0,0-.57.4c-0.4.92-.77,1.85-1.16,2.78m77-29.14a1.42,1.42,0,0,1,.06-0.76c0.05-.21.1-0.42,0.14-0.63a1.82,1.82,0,0,0-.15-1.17,0.31,0.31,0,0,0-.27-0.2,0.17,0.17,0,0,0-.19.14c0,0.09,0,.13.12,0.16a0.46,0.46,0,0,1,.17.69,0.39,0.39,0,0,0-.3-0.21,0.38,0.38,0,0,0-.22.33,1.64,1.64,0,0,0,0,.67c0,0.17,0,.4.3,0.36,0.07,0,.07,0,0.07.07a0.67,0.67,0,0,0,.32.56m-4.59-5.71V39.51a0.39,0.39,0,0,0-.43-0.45c-0.13,0-.18.08-0.12,0.15a1,1,0,0,1,.09.78,3.79,3.79,0,0,1-.17,1.57,0.14,0.14,0,0,0,0,.14,1.2,1.2,0,0,0,.56.11c0.15,0,0-.21,0-0.32a1,1,0,0,1,0-.19c0-.5.05-1,0.08-1.55M79,30.82a1.17,1.17,0,0,0-1.13.27,9.84,9.84,0,0,1-.79.62l-0.79.64a1.07,1.07,0,0,0,.8,0c0.63-.49,1.26-1,1.91-1.51m3.52-2.42a1.41,1.41,0,0,0-1.14.22c-0.32.26-.68,0.46-1,0.69l-0.76.51a1.22,1.22,0,0,0,.76,0c0.72-.45,1.41-0.94,2.16-1.44m0.83-.94a1.27,1.27,0,0,0,1-.11c0.69-.41,1.41-0.76,2.11-1.15,0.07,0,.18,0,0.18-0.17a2,2,0,0,0-.61,0,23.46,23.46,0,0,0-2.63,1.39m54.32,18.73a1.85,1.85,0,0,1,.09-1.07c0.07-.39.16-0.78,0.23-1.17a1.14,1.14,0,0,0-.36-1.24,1.26,1.26,0,0,1,.09.77,12.83,12.83,0,0,1-.36,1.84,0.86,0.86,0,0,0,.33.87m0.17,0.48,0,0,1.08,2.12a3.43,3.43,0,0,0-.33-0.72c-0.14-.23-0.07-0.35.16-0.44a0.6,0.6,0,0,0,.13.26,3.6,3.6,0,0,0,0-.85,2,2,0,0,1,0-1.34,0.65,0.65,0,0,0,0-.35,0.13,0.13,0,0,0-.17-0.1c-0.08,0-.06.1,0,0.16s0.08,0.12,0,.16a0.1,0.1,0,0,1-.12-0.08c0-.06,0-0.15-0.12-0.1s0,0.09,0,.16a5.5,5.5,0,0,1,.17,1.53,0.12,0.12,0,0,1,0,.09c-0.16.18-.16,0.18,0.08,0.26a0.94,0.94,0,0,1-.24.24l-0.51-1m-1.21-5.3c-0.23.19-.51,0.27-0.32,0.63a0.47,0.47,0,0,1,0,.25c-0.08.5-.17,1-0.23,1.5a0.48,0.48,0,0,0,.3.58,1.84,1.84,0,0,0,0-.51,7.38,7.38,0,0,0,.23-1.27,1,1,0,0,0,.19-0.23,2.36,2.36,0,0,1-.13-0.94m-34.91-1.1a0.41,0.41,0,0,0-.4,0c-0.53.55-1,1.11-1.53,1.63a0.43,0.43,0,0,0,.4,0l1.52-1.59m2.32-2a0.5,0.5,0,0,0-.45,0c-0.44.37-.87,0.76-1.36,1.19a0.79,0.79,0,0,0,.58-0.06L104,38.28m7.11-4.92a0.77,0.77,0,0,0-.58-0.07l-1.34.79a1,1,0,0,0,.53.08c0.45-.24.89-0.51,1.4-0.8m-6.49,4c0.35,0.11.39,0.12,0.52,0l1.22-.95a0.53,0.53,0,0,0-.57,0l-1.18.93M87.93,25.16l0,0.09c0.89,0,1.58-.59,2.41-0.82a0.51,0.51,0,0,0-.32-0.08l-2.13.81m25.64,7A0.68,0.68,0,0,0,113,32l-1.13.54a0.66,0.66,0,0,0,.52.15c0.4-.17.79-0.37,1.18-0.56m0.86-.81c0.75,0.41,1.22-.13,1.84-0.23-0.71-.46-1.19.1-1.84,0.23M79.18,74.6c0.63,0.1.75,0,.89-0.45a0.16,0.16,0,0,0,0-.15,0.86,0.86,0,0,0-.68.1c-0.08.16-.14,0.33-0.22,0.51M108.47,35c-0.68-.23-0.94.36-1.44,0.54a0.49,0.49,0,0,0,.5.11l0.95-.64m23.66,3.37a0.41,0.41,0,0,0,.32.48c0.18,0,.2-0.15.21-0.3a0.45,0.45,0,0,0-.35-0.5c-0.2,0-.17.18-0.19,0.32" transform="translate(0 0)" style="fill:#211915"/><path d="M153.57,87.51c-0.1.61-.19,1.22-0.3,1.83-0.35,2-.88,3.91-1.36,5.85a11.74,11.74,0,0,0-.38,2.37,4.65,4.65,0,0,0,.2,1.34H147a0.27,0.27,0,0,1-.32-0.28c-0.07-.39-0.05-0.79-0.1-1.19a0.14,0.14,0,0,0-.07,0,4.75,4.75,0,0,1-3.5,1.83,8.6,8.6,0,0,1-3.51-.24,3.77,3.77,0,0,1-2.82-3.58,4.66,4.66,0,0,1,1.15-3.77,5.87,5.87,0,0,1,2.76-1.51,21.91,21.91,0,0,1,5-.65,5.48,5.48,0,0,0,2-.36,1.64,1.64,0,0,0,1-1.9,1.45,1.45,0,0,0-1.38-1.17,5,5,0,0,0-2,.08,1.92,1.92,0,0,0-1.53,1.58,0.26,0.26,0,0,1-.32.25H139c-0.27,0-.3-0.07-0.25-0.32a5.81,5.81,0,0,1,4.78-4.7,14.67,14.67,0,0,1,7.27.28,4.07,4.07,0,0,1,2.11,1.39,4.15,4.15,0,0,1,.66,1.6v1.24Zm-5.79,4.15a2.48,2.48,0,0,1-1.15.43c-0.68.09-1.36,0.15-2,.24a4.37,4.37,0,0,0-2.09.64,1.8,1.8,0,0,0-.71,1.81A1.44,1.44,0,0,0,142.9,96a3.48,3.48,0,0,0,3.7-1.1,6.43,6.43,0,0,0,1.19-3.26" transform="translate(0 0)" style="fill:#dfa627"/><path d="M89,99.43a2.33,2.33,0,0,0-.68-0.17,4.06,4.06,0,0,1-3.14-4.38,36.86,36.86,0,0,1,.84-4.63c0.45-2.22.94-4.43,1.4-6.65a0.38,0.38,0,0,1,.46-0.38c1.48,0,3,0,4.43,0,0.26,0,.35,0,0.29.34-0.62,3-1.22,5.92-1.82,8.88A6.32,6.32,0,0,0,90.7,94a1.45,1.45,0,0,0,1.41,1.46,3.12,3.12,0,0,0,3.29-1.89A11,11,0,0,0,96.12,91q0.8-3.73,1.58-7.47a0.37,0.37,0,0,1,.45-0.35c1.49,0,3,0,4.46,0,0.25,0,.33,0,0.27.31q-1.62,7.58-3.22,15.16a0.28,0.28,0,0,1-.33.28h-4.4c-0.23,0-.28-0.06-0.22-0.28,0.12-.52.22-1,0.33-1.56,0-.09,0-0.18.05-0.37a7,7,0,0,1-1,1.15,5.91,5.91,0,0,1-3.22,1.43,0.35,0.35,0,0,0-.24.07H89Z" transform="translate(0 0)" style="fill:#dfa627"/><path d="M21.68,98.71a22,22,0,0,0,.52-2.3Q23.75,89,25.29,81.58c0.27-1.33.56-2.65,0.82-4a0.38,0.38,0,0,1,.46-0.38c1.64,0,3.28,0,4.92,0,0.27,0,.35,0,0.29.33q-1,4.88-2.05,9.76c-0.44,2.12-.88,4.24-1.34,6.36-0.06.29,0,.36,0.29,0.36H38c0.39,0,.39,0,0.31.38-0.29,1.38-.59,2.75-0.87,4.13a0.37,0.37,0,0,1-.44.35H21.68v-0.2Z" transform="translate(0 0)" style="fill:#dfa627"/><path d="M81,88.9L81.17,89a2.65,2.65,0,0,1,2,2.49,17.42,17.42,0,0,1,0,2.86c0,1-.06,2,0,3.06a3.66,3.66,0,0,0,.22,1.28c0.07,0.18,0,.23-0.15.23H78a0.24,0.24,0,0,1-.27-0.24,6.77,6.77,0,0,1-.1-2c0.06-.94.13-1.88,0.12-2.83a4.59,4.59,0,0,0-.09-0.94A2.21,2.21,0,0,0,75.43,91c-1.34,0-2.69,0-4,0-0.24,0-.23.15-0.26,0.29q-0.47,2.26-.94,4.52c-0.2.95-.4,1.89-0.58,2.83a0.27,0.27,0,0,1-.33.25H64.21c-0.25,0-.28-0.07-0.23-0.3q2.18-10.49,4.34-21a0.4,0.4,0,0,1,.47-0.4c3.41,0,6.82,0,10.23,0a12.15,12.15,0,0,1,3.51.42,4.47,4.47,0,0,1,3.37,4.05A8.61,8.61,0,0,1,85.68,85a5.09,5.09,0,0,1-4.22,3.77L81,88.9m-6-2.08a19.82,19.82,0,0,0,2.77-.09,2.7,2.7,0,0,0,2.29-1.54c0.53-1.3.44-3-1.47-3.44a4.19,4.19,0,0,0-.67-0.1c-1.52-.09-3,0-4.56,0a0.24,0.24,0,0,0-.27.23q-0.49,2.35-1,4.7c0,0.21,0,.29.23,0.28,0.83,0,1.65,0,2.66,0" transform="translate(0 0)" style="fill:#dfa627"/><path d="M132,85.29l0.39-1.91c0.4-2,.8-3.91,1.19-5.86a0.3,0.3,0,0,1,.36-0.3q2.28,0,4.56,0c0.27,0,.29.08,0.24,0.32q-2.2,10.53-4.39,21.06a0.3,0.3,0,0,1-.36.29q-2.18,0-4.36,0c-0.3,0-.34-0.09-0.27-0.35,0.12-.49.22-1,0.33-1.49-0.13,0-.14.06-0.18,0.11a5.19,5.19,0,0,1-4.88,2.16,5.44,5.44,0,0,1-3.15-1.08A5.29,5.29,0,0,1,119.56,95a11.1,11.1,0,0,1,2.06-9.44,7.37,7.37,0,0,1,7.68-2.66,3.36,3.36,0,0,1,2.58,2.16L132,85.29m-1,4.43c0-.2,0-0.39,0-0.59a2.49,2.49,0,0,0-2.66-2.48,3.14,3.14,0,0,0-2.68,1.4,7,7,0,0,0-1.14,5.26,2.3,2.3,0,0,0,2.1,2.07,3.17,3.17,0,0,0,3-1.23A7.25,7.25,0,0,0,131,89.72" transform="translate(0 0)" style="fill:#dfa627"/><path d="M49,97.38a0.53,0.53,0,0,0-.12.09A4.86,4.86,0,0,1,45.1,99.3a9.21,9.21,0,0,1-2.72-.13,3.78,3.78,0,0,1-3.33-3.62,4.41,4.41,0,0,1,2.32-4.76A8.4,8.4,0,0,1,43.45,90,24.31,24.31,0,0,1,48,89.53a5.76,5.76,0,0,0,1.88-.32A1.62,1.62,0,0,0,50.94,88a1.43,1.43,0,0,0-1.15-1.83,4.82,4.82,0,0,0-2.26,0A1.89,1.89,0,0,0,46,87.73a0.3,0.3,0,0,1-.36.29H41.39c-0.24,0-.32,0-0.25-0.3A5.78,5.78,0,0,1,45.74,83a14.92,14.92,0,0,1,7.24.17,4.81,4.81,0,0,1,1.05.42,3.33,3.33,0,0,1,1.91,3.16A21.17,21.17,0,0,1,55.32,91c-0.37,1.74-.89,3.44-1.23,5.18a4.93,4.93,0,0,0,0,2.48c0.05,0.16,0,.21-0.15.21H49.37A0.28,0.28,0,0,1,49,98.6,10.33,10.33,0,0,1,49,97.38m1.21-5.72a2.78,2.78,0,0,1-1.1.42c-0.69.13-1.38,0.15-2.07,0.24a4.23,4.23,0,0,0-2.17.69,1.81,1.81,0,0,0-.64,1.77A1.38,1.38,0,0,0,45.26,96a3.37,3.37,0,0,0,3.37-.72,5.66,5.66,0,0,0,1.54-3.62" transform="translate(0 0)" style="fill:#dfa627"/><path d="M112.67,92.28h-5.34a0.27,0.27,0,0,0-.35.32,5.08,5.08,0,0,0,0,1.2,2.37,2.37,0,0,0,2.21,2,4.52,4.52,0,0,0,1.93-.17,2.29,2.29,0,0,0,1.47-1.28,0.35,0.35,0,0,1,.39-0.24c1.48,0,3,0,4.43,0,0.3,0,.31.09,0.21,0.33a6.84,6.84,0,0,1-4.31,4.27,10.69,10.69,0,0,1-7.39,0,5.79,5.79,0,0,1-3.91-5.24,10.15,10.15,0,0,1,1.87-7.23,8.53,8.53,0,0,1,5.81-3.42,9,9,0,0,1,5,.52,6,6,0,0,1,3.74,5.08,15.63,15.63,0,0,1-.06,3.6,0.25,0.25,0,0,1-.32.25h-5.41m-5.25-2.88h6c0.15,0,.18-0.07.18-0.19a4.49,4.49,0,0,0-.07-1,2.32,2.32,0,0,0-1.92-2,3.72,3.72,0,0,0-4.17,3.18" transform="translate(0 0)" style="fill:#dfa627"/><path d="M68.18,74.67a0.17,0.17,0,0,1,0-.17A143.83,143.83,0,0,1,75.66,58a94.65,94.65,0,0,1,9.07-13.9,58.37,58.37,0,0,1,7.79-8.16A37.6,37.6,0,0,1,101.67,30a29.17,29.17,0,0,1,6-1.92h0.2c-0.79.26-1.51,0.48-2.22,0.73a40.5,40.5,0,0,0-12.06,6.93,63.52,63.52,0,0,0-12,13.31,107.81,107.81,0,0,0-10.28,19c-0.87,2-1.69,4.11-2.46,6.19-0.05.13-.09,0.26-0.14,0.39H68.18" transform="translate(0 0)" style="fill:#dfa627"/><path d="M49.37,74.66c-0.15-.11,0-0.23,0-0.32,0.36-1,.75-1.93,1.11-2.9a0.42,0.42,0,0,1,.5-0.32l-0.79,2-0.46,1.21a0.36,0.36,0,0,1-.19.28H49.37" transform="translate(0 0)" style="fill:#dfa627"/><path d="M50.47,44.52c2,0.86,4.09,1.58,6.16,2.28,0.44,0.15.89,0.27,1.32,0.45a4.47,4.47,0,0,0,2.17.24c0.55-.05,1.1-0.07,1.64-0.11a0.27,0.27,0,0,1-.09.23c-0.72,1-1.43,2.07-2.11,3.13a0.41,0.41,0,0,1-.33.23c-1.28.13-2.57,0.23-3.86,0.26a2.06,2.06,0,0,1-.7-0.1q-3.44-1.07-6.92-2a0.57,0.57,0,0,0-.3,0l1.64,0.66c1.8,0.72,3.61,1.41,5.43,2.09a2.66,2.66,0,0,0,.89.16c1.11,0,2.21,0,3.32-.08a0.19,0.19,0,0,1-.07.23c-0.88,1.41-1.73,2.83-2.54,4.28a0.47,0.47,0,0,1-.43.27c-1.1.11-2.2,0.24-3.3,0.36a1.18,1.18,0,0,1-.48,0c-2.39-.69-4.79-1.36-7.21-1.93l-0.22,0a0.15,0.15,0,0,0,.15.13c2.36,1,4.77,1.83,7.18,2.68a2.13,2.13,0,0,0,.84,0c0.91-.05,1.81-0.12,2.73-0.22a0.46,0.46,0,0,1-.11.3c-1,1.9-2,3.82-3,5.78a0.51,0.51,0,0,1-.42.33c-1,.16-2,0.29-3,0.42a1.09,1.09,0,0,1-.51-0.07c-2.43-.84-4.87-1.62-7.33-2.36a0.24,0.24,0,0,0-.22,0c1,0.45,2,.9,3.05,1.33l4.38,1.82a1.15,1.15,0,0,0,.51.09c0.86,0,1.71-.14,2.56-0.24l0.25,0a0.19,0.19,0,0,1,0,.21q-1.15,2.45-2.22,4.95a0.41,0.41,0,0,1-.34.29l-2.41.34a1,1,0,0,1-.48-0.06c-2.39-.82-4.81-1.6-7.25-2.26a0.15,0.15,0,0,0-.14,0l1.51,0.69q2.85,1.27,5.75,2.4a1.27,1.27,0,0,0,.57.08c0.73,0,1.46-.15,2.19-0.23a0.28,0.28,0,0,1,0,.26c-0.35.88-.72,1.76-1.06,2.65a0.32,0.32,0,0,1-.35.25H39.1a1,1,0,0,1-.38-0.08L35.9,73.49a0.24,0.24,0,0,0-.23,0l2.09,1.09c0,0.13-.15.08-0.22,0.08-1,0-2,0-2.93,0-0.32,0-.32-0.1-0.23-0.35A95.37,95.37,0,0,1,39.46,62a161.23,161.23,0,0,1,9.7-17.17A74.92,74.92,0,0,1,59.24,32.42a40.82,40.82,0,0,1,10.85-7.77,29.89,29.89,0,0,1,9.53-2.77,31,31,0,0,1,9.23.35c1.62,0.3,3.24.6,4.85,0.94l0.24,0.07-1.57.5a0.27,0.27,0,0,1-.13,0l-1.51-.25c-1.36-.21-2.72-0.43-4.08-0.62a24.88,24.88,0,0,0-3.34-.28,17.6,17.6,0,0,0,2.09.67q1.07,0.29,2.14.55l2.19,0.49c0,0.09-.07.1-0.13,0.12-0.67.24-1.34,0.5-2,.72a2.5,2.5,0,0,1-1.19-.05c-2.57-.46-5.15-0.88-7.74-1.18q-0.93-.1-1.87-0.13a81.11,81.11,0,0,0,8.88,2.16c0,0.12-.08.11-0.14,0.14-0.87.37-1.69,0.83-2.52,1.28a1,1,0,0,1-.49.12,18.73,18.73,0,0,1-4.13-.62c-2.62-.5-5.24-1-7.9-1.23a102.23,102.23,0,0,0,10.67,2.78c-0.76.49-1.47,1-2.24,1.42a2,2,0,0,1-1.22,0c-2.62-.43-5.25-0.81-7.88-1.12-1.44-.17-2.89-0.31-4.34-0.43a0.84,0.84,0,0,0-.26,0c4.07,1,8.2,1.79,12.34,2.46,0,0.09,0,.12-0.08.15-0.61.45-1.23,0.89-1.81,1.39a0.53,0.53,0,0,1-.37.08,25,25,0,0,1-4.65-.5c-2-.31-3.94-0.59-5.92-0.82l-1.46-.17a2.77,2.77,0,0,0-.63,0,107.69,107.69,0,0,0,11.7,2.47l-0.92.82c-0.83.76-1.68,1.52-2.47,2.32a0.63,0.63,0,0,1-.37.17,8.48,8.48,0,0,1-3.74-.38c-2.69-.64-5.38-1.22-8.1-1.72a0.4,0.4,0,0,0-.27,0l2,0.69c2.57,0.85,5.16,1.62,7.79,2.27a4.15,4.15,0,0,0,.7.14,5.58,5.58,0,0,0,.71,0,0.34,0.34,0,0,1-.16.24c-1.05,1.1-2.05,2.24-3,3.39a0.6,0.6,0,0,1-.44.21A14.64,14.64,0,0,1,61.59,41c-2.31-.48-4.63-0.92-7-1.23,0.9,0.34,1.83.61,2.75,0.88,2.18,0.65,4.38,1.23,6.58,1.79a4.93,4.93,0,0,0,1,.07h0.58L65,43.13c-0.77,1-1.53,2-2.29,3a0.55,0.55,0,0,1-.42.26l-3.24.27a2,2,0,0,1-.66-0.16c-2.58-.71-5.17-1.39-7.78-2l-0.16,0" transform="translate(0 0)" style="fill:#dfa627"/><path d="M118.6,39.44a7.08,7.08,0,0,0-1.89-1.72,31.23,31.23,0,0,0-6.09-3.15l-0.24-.09-0.08-.08,1.41-.78a0.26,0.26,0,0,1,.22,0,30.61,30.61,0,0,1,9.77,5.05l0.49,0.43a0.31,0.31,0,0,0,.23.15l-0.17-.2a10.18,10.18,0,0,0-2.07-2.19,23.53,23.53,0,0,0-6.92-3.79L113,33l1.3-.58a0.43,0.43,0,0,1,.34.06,36.69,36.69,0,0,1,8.91,4.2,0.75,0.75,0,0,0,.23.11,11.69,11.69,0,0,0-1.34-1.27,17.39,17.39,0,0,0-1.55-1.14c-0.53-.33-1.06-0.68-1.62-1s-1.13-.59-1.72-0.84l-1.79-.74,1.21-.42a0.36,0.36,0,0,1,.25,0,39.72,39.72,0,0,1,6.34,2.84,12.79,12.79,0,0,1,2.07,1.45c-0.2-.62-1.82-2-3.14-2.85a25.24,25.24,0,0,0-3.87-1.93,0.88,0.88,0,0,1,.81-0.06c2,0.87,4,1.77,5.9,2.8A15.91,15.91,0,0,1,128,35.4a1.41,1.41,0,0,0-.29-0.48A14.78,14.78,0,0,0,123.84,32c-0.26-.16-0.53-0.29-0.81-0.43a0.2,0.2,0,0,1,.24,0c3.21,1.21,6.35,2.55,9.43,4.05a12.42,12.42,0,0,1,4.37,3.83,22.09,22.09,0,0,1,3.73,8.27,39.81,39.81,0,0,1,1,9.84,67.22,67.22,0,0,1-1,10.22c-0.37,2.19-.81,4.36-1.33,6.52,0,0.07,0,.14-0.06.22s-0.13.12-.23,0.11-0.08-.11-0.06-0.19c0.26-1.28.53-2.55,0.77-3.82q0.63-3.34,1-6.71a62.64,62.64,0,0,0,.44-9.91,29.17,29.17,0,0,0-2.14-10.65,13.22,13.22,0,0,0-3.71-5A6.32,6.32,0,0,0,131.74,37a12,12,0,0,0-2.76.11,0.3,0.3,0,0,1-.31-0.22c-0.24-.33-0.4-0.36-0.71-0.08a0.26,0.26,0,0,1-.23.05,1.48,1.48,0,0,0-1.35.7,0.73,0.73,0,0,1-.36.31,23.23,23.23,0,0,0-6.64,4A55.35,55.35,0,0,0,110.06,52,132.21,132.21,0,0,0,99.13,70.08C98.4,71.49,97.7,72.93,97,74.36a0.41,0.41,0,0,1-.43.28H86.38a1.06,1.06,0,0,1-.47-0.11c-0.88-.42-1.77-0.81-2.69-1.14A2.71,2.71,0,0,0,81,73.06l1.32-2.91a4.93,4.93,0,0,0,.28-0.62,0.54,0.54,0,0,1,.72-0.43,0.51,0.51,0,0,0,.19,0,4.55,4.55,0,0,1,2.57.59c2.63,1.28,5.3,2.45,8,3.49a1.94,1.94,0,0,0,.3.09c-1.06-.69-2.17-1.32-3.28-1.93-1.92-1.07-3.88-2.08-5.85-3.05a1.24,1.24,0,0,0-.59-0.14h-1.4a0.24,0.24,0,0,1,.06-0.24c0.34-.69.68-1.38,1-2.08a0.36,0.36,0,0,1,.37-0.23,4.21,4.21,0,0,1,1.7.3c3.12,1.26,6.25,2.51,9.47,3.5a0.31,0.31,0,0,0,.2,0c-0.28-.16-0.56-0.31-0.84-0.46a90.07,90.07,0,0,0-8.58-4,3,3,0,0,0-1.48-.3c-0.2,0-.25,0-0.15-0.23,0.38-.69.74-1.4,1.1-2.1a0.24,0.24,0,0,1,.3-0.17H86.6a6.07,6.07,0,0,1,3,.71,79.14,79.14,0,0,0,7.67,2.92l0.18,0.05a0.4,0.4,0,0,0-.23-0.19c-2.85-1.6-5.79-3-8.77-4.31a0.92,0.92,0,0,0-.38-0.07H87.2c-0.38,0-.38,0-0.2-0.35l1.11-2a0.29,0.29,0,0,1,.36-0.19,2.06,2.06,0,0,0,.42,0,5.64,5.64,0,0,1,1.9.35,81.44,81.44,0,0,0,7.89,2.47,0.87,0.87,0,0,0,.33,0c-0.53-.26-1.06-0.52-1.6-0.77-2.32-1.06-4.68-2-7.06-2.89a4.21,4.21,0,0,0-1.22-.13c-0.37,0-.38,0-0.19-0.33l1.75-2.82a0.39,0.39,0,0,1,.42-0.23q0.68,0,1.36.06a0.65,0.65,0,0,1,.27.09c3.4,1.66,6.83,3.25,10.35,4.62a0.69,0.69,0,0,0,.38.1,0.65,0.65,0,0,0-.31-0.23c-3.29-2-6.68-3.72-10.12-5.4a1.11,1.11,0,0,0-.44-0.1l-1.11-.05a0.21,0.21,0,0,1,.09-0.23c0.63-.92,1.27-1.84,1.9-2.76A0.44,0.44,0,0,1,94,50.44c0.33,0.05.67,0.06,1,.09a2.09,2.09,0,0,1,.71.2c3.14,1.52,6.31,3,9.59,4.17L105.49,55a0.17,0.17,0,0,0-.14-0.16c-3.09-1.87-6.3-3.51-9.55-5.09a1.65,1.65,0,0,0-.63-0.13l-0.87-.08L96,47.38a5.48,5.48,0,0,0,.42-0.53,0.67,0.67,0,0,1,.72-0.29,8.34,8.34,0,0,1,2.7.77c2.18,0.8,4.37,1.62,6.47,2.61A13.08,13.08,0,0,1,108.17,51a5.54,5.54,0,0,0-1.32-1.19,31.37,31.37,0,0,0-6.12-3.13c-0.38-.15-0.76-0.31-1.15-0.44a5.39,5.39,0,0,0-2.14-.55,0.61,0.61,0,0,1,.2-0.31l2.06-2.31a0.55,0.55,0,0,1,.45-0.18,6.4,6.4,0,0,1,2.22.6A68.64,68.64,0,0,1,108.86,46a7.1,7.1,0,0,1,2,1.26,0.93,0.93,0,0,0-.29-0.49,9.22,9.22,0,0,0-2.21-1.65A39.68,39.68,0,0,0,101.14,42L100.8,42a14.61,14.61,0,0,0,1-1,1.25,1.25,0,0,1,1.41-.46,20.12,20.12,0,0,1,2.27.75,48.62,48.62,0,0,1,5.76,2.46,13.86,13.86,0,0,1,3,1.94,4.06,4.06,0,0,0-.88-1.08,17.56,17.56,0,0,0-4.14-2.73A37.71,37.71,0,0,0,104,39.67a3.07,3.07,0,0,0-.68-0.14,11.92,11.92,0,0,1,1.38-1.15,1.13,1.13,0,0,1,1,.1c3.24,1.5,6.56,2.84,9.86,4.2a0.08,0.08,0,0,0,.08,0,70.49,70.49,0,0,0-9.85-5.18l1.17-.88a0.25,0.25,0,0,1,.27,0A83.18,83.18,0,0,1,115.49,40a11.83,11.83,0,0,1,1.65,1,2.58,2.58,0,0,0-.69-0.82,18.21,18.21,0,0,0-4-2.49A41.67,41.67,0,0,0,108.28,36a0.29,0.29,0,0,1-.24-0.14l1.05-.69a0.3,0.3,0,0,1,.31,0,74.57,74.57,0,0,1,7.42,3.27,11.77,11.77,0,0,1,1.72,1.11l0.15,0.23a0.27,0.27,0,0,0-.1-0.28" transform="translate(0 0)" style="fill:#dfa627"/><path d="M118.38,30.43a1.2,1.2,0,0,1-1,.06,35,35,0,0,0-7.07-1.73c-0.52-.07-1-0.12-1.55-0.16,2.22,0.76,4.47,1.43,6.69,2.24a2.92,2.92,0,0,1-1.71.36,27.75,27.75,0,0,0-8.28-1.14,2.28,2.28,0,0,0-.39,0c2.6,0.51,5.18,1,7.79,1.81l-1.25.59a0.45,0.45,0,0,1-.31,0,21.67,21.67,0,0,0-4.33-.7,29.39,29.39,0,0,0-4.26-.08l-0.34,0c2.7,0.43,5.33.74,8,1.41-0.55.31-1,.63-1.53,0.86a1.85,1.85,0,0,1-1-.06c-2.29-.24-4.58-0.45-6.88-0.49a0.29,0.29,0,0,0-.13,0c2.18,0.56,4.39,1,6.7,1.33l-1,.64a0.48,0.48,0,0,1-.32,0c-2.16-.21-4.32-0.37-6.5-0.39a1.47,1.47,0,0,0-.35,0c2,0.49,4,.82,6,1.14l-1.38,1a0.43,0.43,0,0,1-.32,0c-1.35-.12-2.7-0.22-4.06-0.29-1.09-.05-2.18-0.11-3.27-0.07,2.16,0.5,4.35.84,6.62,1.16-0.51.43-1,.83-1.45,1.2a0.53,0.53,0,0,1-.32,0c-1.36-.12-2.72-0.25-4.08-0.35s-2.51-.18-3.77-0.15c2.39,0.55,4.81.94,7.26,1.3a6.61,6.61,0,0,1-.73.71,4.14,4.14,0,0,0-.51.5,1.43,1.43,0,0,1-1.45.53C96,41.72,94,41.7,92,41.74a2.12,2.12,0,0,0-.5.05c2.13,0.42,4.29.67,6.49,0.9L96.84,44c-0.42.45-.84,0.91-1.24,1.38a0.58,0.58,0,0,1-.53.21c-2.08-.11-4.17-0.14-6.27-0.06,1.94,0.4,3.9.62,5.92,0.86-0.3.36-.57,0.68-0.83,1l-1.5,1.88a0.33,0.33,0,0,1-.32.16c-2.21-.16-4.42-0.22-6.64-0.2,2,0.45,4.09.71,6.15,1a0.25,0.25,0,0,1-.11.24c-0.72,1-1.44,2-2.15,3a0.45,0.45,0,0,1-.44.19c-2.19,0-4.38,0-6.57.06a2.3,2.3,0,0,0-.71.09c2.36,0.31,4.65.51,6.93,0.67a0.18,0.18,0,0,1-.06.22c-0.64,1-1.3,2-1.93,3a0.41,0.41,0,0,1-.42.21c-1.69-.06-3.39-0.06-5.08,0a3.6,3.6,0,0,0-.89.09c1.45,0.24,2.81.42,4.17,0.56l1.36,0.13c0.17,0,.18.07,0.1,0.2-0.47.78-.94,1.56-1.4,2.34a0.28,0.28,0,0,1-.3.13c-1.67,0-3.34,0-5,.13a1.34,1.34,0,0,0-.59.1c1.77,0.27,3.54.41,5.35,0.56l-0.74,1.32c-0.21.38-.44,0.75-0.62,1.14a0.44,0.44,0,0,1-.46.27c-1.83,0-3.65.17-5.47,0.38,1.76,0.24,3.53.3,5.3,0.4a0.79,0.79,0,0,1-.16.39c-0.35.68-.71,1.36-1.06,2.05a0.35,0.35,0,0,1-.35.22c-2,0-4,.13-6,0.27a7,7,0,0,0-1.32.16c2.39,0.23,4.72.33,7,.4a0.42,0.42,0,0,1-.09.3c-0.56,1.16-1.13,2.32-1.67,3.49a0.47,0.47,0,0,1-.49.32l-2.83.08c-0.72,0-1.45,0-2.26.15,1.73,0.26,3.38.39,5.07,0.51l-0.26.6a0.22,0.22,0,0,1-.24.13H69.33l-0.09,0c0.3-.79.59-1.58,0.9-2.36A117.34,117.34,0,0,1,79.5,53.16,71.1,71.1,0,0,1,91.14,38.54a42.45,42.45,0,0,1,13.69-8.88,34.58,34.58,0,0,1,6.94-1.9,0.45,0.45,0,0,1,.22,0,13.61,13.61,0,0,1,2,.68c1.08,0.55,2.2,1,3.32,1.5l1.1,0.5" transform="translate(0 0)" style="fill:#dfa627"/><path d="M110.75,27.43c-1.38.36-2.8,0.53-4.19,0.83a28.38,28.38,0,0,0-4.94,1.57,35.73,35.73,0,0,0-7.17,4.05,50.23,50.23,0,0,0-5.92,5,78.33,78.33,0,0,0-11,13.93A128.07,128.07,0,0,0,66.69,74.28a0.48,0.48,0,0,1-.54.37c-1.57,0-3.14,0-4.72,0-0.28,0-.31-0.06-0.21-0.3,0.46-1,.91-2.11,1.36-3.16A0.8,0.8,0,0,1,63,70.76a5.59,5.59,0,0,0,.94-0.65l-1,.41c-0.08-.08,0-0.15,0-0.21,1.6-3.5,3.29-6.95,5.14-10.32a1.08,1.08,0,0,1,.44-0.45C69,59.3,69.4,59,69.81,58.8l0-.09-1.25.55c0.43-.73.81-1.38,1.19-2a107.13,107.13,0,0,1,6.6-9.78,1,1,0,0,1,.45-0.36c0.28-.11.55-0.25,0.9-0.41a7.65,7.65,0,0,0-.9.18c0.41-.53.79-1,1.18-1.5A83.31,83.31,0,0,1,86.64,36a49.18,49.18,0,0,1,11.23-8,23.62,23.62,0,0,1,6.65-2.26,0.93,0.93,0,0,1,.41,0l5.6,1.54a0.34,0.34,0,0,1,.22.11" transform="translate(0 0)" style="fill:#dfa627"/><path d="M103.19,74.59a2.94,2.94,0,0,1-.9,0c-0.55,0-1.1,0-1.64,0a0.25,0.25,0,0,1,0-.24,135.75,135.75,0,0,1,9.67-17,59.48,59.48,0,0,1,7.12-8.74,26.52,26.52,0,0,1,7-5.17,18.27,18.27,0,0,1,2-.8,0.33,0.33,0,0,1,.44.12,1.71,1.71,0,0,0,1.09.71,1.58,1.58,0,0,0,1.78-1.22A0.26,0.26,0,0,1,130,42.1a9.45,9.45,0,0,1,2.77.31,5.77,5.77,0,0,1,2,1.19,11.57,11.57,0,0,1,3,3.69,20.82,20.82,0,0,1,2.1,7.22,43.29,43.29,0,0,1,.17,8.25,84.19,84.19,0,0,1-1.63,11.54,0.34,0.34,0,0,1-.43.33c-0.36,0-.74,0-1.11,0a3.52,3.52,0,0,1,.12-0.79c0.32-1.89.61-3.78,0.84-5.68q0.2-1.71.32-3.43c0.07-1.05.11-2.11,0.13-3.17,0-.63,0-1.26,0-1.88,0-.94-0.09-1.87-0.2-2.8a22.09,22.09,0,0,0-.64-3.4,10.67,10.67,0,0,0-3.28-5.6,5.49,5.49,0,0,0-1.76-1.07,8.33,8.33,0,0,0-3.32-.4,11,11,0,0,0-3.63.93,21.64,21.64,0,0,0-6,4.19,57.31,57.31,0,0,0-7.52,8.84,17,17,0,0,0-1.22,1.83h0a0.2,0.2,0,0,0-.13.26c-0.14,0-.13.09-0.17,0.16l-0.13.2L110,63l0,0.08c-0.07.09-.15,0.19-0.21,0.29-2.39,3.63-4.55,7.39-6.57,11.24" transform="translate(0 0)" style="fill:#dfa627"/><path d="M102.38,25.7a0.19,0.19,0,0,0-.21,0,32.92,32.92,0,0,0-6.26,2.2,44.25,44.25,0,0,0-8,4.76,62.92,62.92,0,0,0-9.17,8.42c-0.95,1-1.85,2.13-2.75,3.22a0.65,0.65,0,0,1-.41.24c-2.69.51-5.4,0.91-8.12,1.29-0.79.11-1.59,0.18-2.45,0.28l1.46-1.94,1.24-1.59a0.45,0.45,0,0,1,.35-0.19,45.66,45.66,0,0,0,7.74-1.13,31.38,31.38,0,0,0,3.32-1c-3.45.53-6.9,0.95-10.46,1.17,0.59-.68,1.13-1.32,1.69-1.93s1.08-1.15,1.61-1.74a0.88,0.88,0,0,1,.62-0.3,68,68,0,0,0,9.71-1.57,0.11,0.11,0,0,0,.08-0.1l-9.06.69a0.25,0.25,0,0,1,.15-0.23c1-1,2-1.86,3-2.75a0.53,0.53,0,0,1,.38-0.14,40.61,40.61,0,0,0,5.26-.27,21.92,21.92,0,0,0,5.56-1.27,49.53,49.53,0,0,1-9.84.56c0.48-.37,1-0.73,1.45-1.13a1.88,1.88,0,0,1,1.33-.45c2.51,0,5-.1,7.52-0.26a6.92,6.92,0,0,0,.78-0.09c-2.55-.28-5.12-0.41-7.69-0.5a0.2,0.2,0,0,1,.16-0.18,14.86,14.86,0,0,1,2-1.24,6,6,0,0,1,2.31-.12c1.65,0,3.3-.1,4.94-0.21a1,1,0,0,0,.31-0.07C89,27.82,87,27.67,85,27.56a0.17,0.17,0,0,1,.14-0.16l2.28-1.18a0.85,0.85,0,0,1,.47-0.08c2.6,0.15,5.2.2,7.81,0.11-2-.44-4.11-0.66-6.21-0.89A1.84,1.84,0,0,1,90,25.09a4.14,4.14,0,0,1,2.79-.34,32.6,32.6,0,0,0,5.37.44A40.92,40.92,0,0,0,93.4,24a3.87,3.87,0,0,1,2.13-.42q3.93,0.85,7.84,1.84l0.15,0.06a8.74,8.74,0,0,1-1.14.25h0Z" transform="translate(0 0)" style="fill:#dfa627"/><path d="M103.19,74.59c2-3.84,4.19-7.6,6.57-11.24,0.07-.1.14-0.19,0.21-0.29l0.06,0a0.35,0.35,0,0,0,.29-0.36h0c0.11,0,.11-0.07.14-0.13h0c0.55-.71,1.1-1.42,1.66-2.12a55.38,55.38,0,0,1,7.46-7.88,21,21,0,0,1,6-3.77,8.26,8.26,0,0,1,4.84-.45,4.71,4.71,0,0,1,2.94,2,14.49,14.49,0,0,1,2.07,5,32.29,32.29,0,0,1,.78,6.61,67.2,67.2,0,0,1-.45,9.32c-0.12,1-.25,2-0.37,3.07a0.24,0.24,0,0,1-.3.27c-0.7,0-.71,0-0.64-0.67a74.22,74.22,0,0,0,.23-10,33,33,0,0,0-1.08-8,9.32,9.32,0,0,0-1.84-3.79,4.16,4.16,0,0,0-1-.81,0.28,0.28,0,0,0-.47.14c-1.54,2.75-3.09,5.49-4.63,8.24-2.7,4.84-5.37,9.7-7.95,14.61a0.4,0.4,0,0,1-.42.26c-0.63,0-1.26,0-1.89,0a0.66,0.66,0,0,1,.14-0.34c4.18-7.73,8-15.64,11.76-23.59,0.12-.25.09-0.31-0.19-0.32a10.62,10.62,0,0,0-5.95,1.79,26.55,26.55,0,0,0-5.61,4.76A72.6,72.6,0,0,0,106,70.49c-0.4.69-.75,1.42-1.16,2.1a3,3,0,0,0-.32,1.88c0,0.11,0,.17-0.1.16a5.72,5.72,0,0,1-1.19,0m21.08-14.82a0.35,0.35,0,0,0,.25-0.24l1-1.54q2.11-3.39,4.22-6.78c0.13-.21.1-0.32-0.11-0.42a2.52,2.52,0,0,0-.92-0.28,0.3,0.3,0,0,0-.37.21c-1.33,3-2.68,6-4,9.06" transform="translate(0 0)" style="fill:#fff"/><path d="M110.58,62.18a16.63,16.63,0,0,1,1.22-1.83,57.43,57.43,0,0,1,7.52-8.84,21.68,21.68,0,0,1,6-4.18A10.93,10.93,0,0,1,129,46.4a8.44,8.44,0,0,1,3.32.4,5.6,5.6,0,0,1,1.77,1.07,10.65,10.65,0,0,1,3.28,5.6,22.05,22.05,0,0,1,.64,3.4c0.11,0.93.16,1.86,0.2,2.8,0,0.63.06,1.25,0,1.88,0,1.05-.06,2.11-0.13,3.17s-0.18,2.29-.32,3.42c-0.23,1.9-.51,3.79-0.84,5.68a3.51,3.51,0,0,0-.12.79l-1,0c-0.16,0-.19-0.06-0.16-0.22,0.14-.83.27-1.65,0.37-2.48s0.24-1.72.31-2.59q0.08-1,.16-2.06c0.11-1.45.18-2.91,0.17-4.37s0-2.64-.18-3.95a26.45,26.45,0,0,0-1.06-5.41,12.08,12.08,0,0,0-1.95-3.8,5.14,5.14,0,0,0-3.36-1.86,9.65,9.65,0,0,0-6,1.16,21,21,0,0,0-4,2.62A54.09,54.09,0,0,0,110.84,62c-0.06.08-.07,0.26-0.25,0.21" transform="translate(0 0)" style="fill:#fff"/><path d="M68.73,54.52c-1.23,2-2.38,3.93-3.46,5.91a0.56,0.56,0,0,1-.35.25A71,71,0,0,1,56,63.28a6,6,0,0,1-1.07.21A0.45,0.45,0,0,1,55,63.19c0.9-1.89,1.85-3.74,2.84-5.59a0.47,0.47,0,0,1,.39-0.27A49.55,49.55,0,0,0,67,55.21c0.56-.19,1.09-0.45,1.72-0.69" transform="translate(0 0)" style="fill:#dfa627"/><path d="M64.69,61.49c-1,1.81-1.88,3.57-2.75,5.36a0.43,0.43,0,0,1-.25.23,63.16,63.16,0,0,1-9.55,2.82H52.06a0.32,0.32,0,0,1,.07-0.27c0.66-1.6,1.36-3.18,2.08-4.76a0.49,0.49,0,0,1,.39-0.32,49.89,49.89,0,0,0,9.87-3l0.22-.08" transform="translate(0 0)" style="fill:#dfa627"/><path d="M58.53,56.33c0.31-.55.59-1.05,0.88-1.54C59.95,53.87,60.51,53,61,52a0.82,0.82,0,0,1,.67-0.45c1.88-.29,3.75-0.64,5.6-1.11,1.6-.4,3.16-0.92,4.72-1.44A0.6,0.6,0,0,1,72.41,49c-0.39.57-.79,1.12-1.16,1.69-0.72,1.09-1.44,2.17-2.14,3.26a0.7,0.7,0,0,1-.42.32,70.62,70.62,0,0,1-8.44,1.81l-1.72.27" transform="translate(0 0)" style="fill:#dfa627"/><path d="M61.74,67.22C61.14,68.51,60.51,69.71,60,71a2.56,2.56,0,0,1-1.65,1.58q-2.72,1.05-5.48,2a1,1,0,0,1-.35.07H50.43c-0.21,0-.27,0-0.19-0.25,0.42-1.07.84-2.13,1.24-3.21a0.4,0.4,0,0,1,.36-0.26,36,36,0,0,0,4.5-1.26,28.62,28.62,0,0,0,5-2.24l0.35-.19" transform="translate(0 0)" style="fill:#dfa627"/><path d="M75.64,44.71c-0.87,1.13-1.72,2.18-2.49,3.28a0.47,0.47,0,0,1-.3.18c-2.7.75-5.41,1.46-8.16,2-0.88.17-1.77,0.3-2.66,0.44a0.33,0.33,0,0,1,.11-0.27l2-3a0.49,0.49,0,0,1,.38-0.24c1.94-.23,3.86-0.53,5.77-0.95a44.24,44.24,0,0,0,5-1.33l0.38-.12" transform="translate(0 0)" style="fill:#dfa627"/><path d="M101.92,25.83a6.08,6.08,0,0,1-1,.36,36.2,36.2,0,0,0-9.05,4.91A69.75,69.75,0,0,0,80.53,41.56Q78.19,44.19,76.07,47a0.61,0.61,0,0,1-.3.23l-1.16.37a0.47,0.47,0,0,1,.16-0.31,78.36,78.36,0,0,1,7.85-9.37,50.25,50.25,0,0,1,12.56-9.45,36.06,36.06,0,0,1,6.46-2.6,0.67,0.67,0,0,1,.28,0h0Z" transform="translate(0 0)" style="fill:#dfa627"/><path d="M67,59.84q1.61-3.1,3.42-6.06c1.08-1.76,2.19-3.49,3.37-5.18a1.08,1.08,0,0,1,.53-0.44c0.36-.14.71-0.31,1.07-0.47,0.07,0.13,0,.17-0.07.23a107.71,107.71,0,0,0-7.42,11.41,1.55,1.55,0,0,1-.9.51" transform="translate(0 0)" style="fill:#dfa627"/><path d="M128.36,37.37V37a5,5,0,0,1,.78,1.43c-0.22-.17-0.37-0.3-0.54-0.41a0.82,0.82,0,0,0-1.28.25,2.11,2.11,0,0,0-.32.94,4.54,4.54,0,0,0,.48,2.61,1.87,1.87,0,0,0,.44.56,0.8,0.8,0,0,0,1.3-.18l0.16-.28a0.17,0.17,0,0,1,.06.23,1.34,1.34,0,0,1-.85,1.07,1.15,1.15,0,0,1-1.25-.32,3.78,3.78,0,0,1-1.09-2.13,4.2,4.2,0,0,1,.17-2.52,1.87,1.87,0,0,1,.58-0.81,1.22,1.22,0,0,1,1.37-.06" transform="translate(0 0)" style="fill:#dfa627"/><path d="M61.62,71.1c0.74-1.74,1.5-3.41,2.28-5.08s1.62-3.28,2.42-4.93a2.08,2.08,0,0,1,1.13-.94c-0.5,1-1,1.9-1.47,2.83-1.26,2.47-2.47,5-3.61,7.49a0.82,0.82,0,0,1-.76.63" transform="translate(0 0)" style="fill:#dfa627"/><path d="M129.3,40.52a2.53,2.53,0,0,1-.19,1,0.58,0.58,0,0,1-1.07.13,2.88,2.88,0,0,1-.39-2.74,0.64,0.64,0,0,1,1.19-.13,2.93,2.93,0,0,1,.44,1.71m-0.56.57a15.75,15.75,0,0,0-.24-1.88c0-.15,0-0.39-0.23-0.37s-0.17.26-.16,0.41a10.37,10.37,0,0,0,.27,2c0,0.12,0,.33.22,0.32s0.13-.22.15-0.35,0-.06,0-0.15" transform="translate(0 0)" style="fill:#dfa627"/><path d="M130,39.09c0.23-.2.25-0.48,0.5-0.42a0.55,0.55,0,0,1,.38.52,13.94,13.94,0,0,1,.06,1.72,0.43,0.43,0,0,0,.15.48c0.07,0,.07.19-0.1,0.21-0.44,0-.49,0-0.5-0.42s0-1-.05-1.56a2,2,0,0,0,0-.26,0.2,0.2,0,0,0-.16-0.22,0.18,0.18,0,0,0-.15.22c0,0.62,0,1.24.07,1.85a0.28,0.28,0,0,0,.12.14c0.07,0.11.11,0.23-.1,0.25h-0.1a0.72,0.72,0,0,1-.47,0c-0.18-.13.08-0.25,0.07-0.38,0-.36-0.05-0.71-0.07-1.07s0-.63-0.07-0.94a0.3,0.3,0,0,0-.13-0.33,0.16,0.16,0,0,1,0-.2c0-.11.12-0.08,0.19-0.07,0.23,0,.59-0.08.44,0.47" transform="translate(0 0)" style="fill:#dfa627"/><path d="M53.79,63.73c0.61-1.25,1.19-2.46,1.78-3.66,0.37-.75.77-1.48,1.14-2.23a0.5,0.5,0,0,1,.61-0.35,0.23,0.23,0,0,1-.08.21q-1.5,2.79-2.85,5.66c-0.15.31-.15,0.31-0.6,0.37" transform="translate(0 0)" style="fill:#dfa627"/><path d="M79.83,73.07l1.46-3.19,0.14-.29c0.25-.52.25-0.52,0.84-0.48a0.48,0.48,0,0,1-.09.3c-0.47,1-1,2.08-1.4,3.14a0.72,0.72,0,0,1-.94.53" transform="translate(0 0)" style="fill:#dfa627"/><path d="M67.38,41.43c1.08-1.28,2.12-2.54,3.26-3.71a1,1,0,0,1,.8-0.14l-0.51.56c-0.9,1-1.79,1.95-2.62,3a0.84,0.84,0,0,1-.94.32" transform="translate(0 0)" style="fill:#dfa627"/><path d="M55.46,74.63c1.24-.52,2.41-1.15,3.67-1.73l-0.68,1.6a0.19,0.19,0,0,1-.2.13H55.46" transform="translate(0 0)" style="fill:#dfa627"/><path d="M71.71,36.56c1.12-1.07,2.16-2.15,3.3-3.12a1.54,1.54,0,0,1,.9-0.13l-0.49.44c-0.87.77-1.72,1.56-2.54,2.38a1.06,1.06,0,0,1-1.16.43" transform="translate(0 0)" style="fill:#dfa627"/><path d="M57.48,56.43c0.29-.54.58-1.07,0.88-1.59,0.53-.92,1.08-1.82,1.6-2.75a0.54,0.54,0,0,1,.66-0.32,0.44,0.44,0,0,1-.14.31c-0.81,1.33-1.61,2.67-2.35,4a0.51,0.51,0,0,1-.64.32" transform="translate(0 0)" style="fill:#dfa627"/><path d="M133.34,39.8c0.33-.26.46-0.23,0.56,0.12a4.19,4.19,0,0,1,0,1.55,1.08,1.08,0,0,0,0,.72s0,0.19-.1.13-0.41-.1-0.37-0.42c0.07-.48.1-1,0.14-1.46a2.44,2.44,0,0,0,0-.26,0.17,0.17,0,0,0-.1-0.18c-0.12,0-.12.12-0.13,0.19,0,0.34-.08.69-0.1,1a1,1,0,0,0,0,.71,0.1,0.1,0,0,1,0,.09,0.85,0.85,0,0,1-.49-0.1,0.12,0.12,0,0,1-.08-0.18,3.17,3.17,0,0,0,.21-1.41,1.23,1.23,0,0,0-.05-0.85c0-.07,0-0.18.13-0.12s0.46,0.09.35,0.45" transform="translate(0 0)" style="fill:#dfa627"/><path d="M63.8,46.2c0.87-1.27,1.77-2.48,2.71-3.65a0.91,0.91,0,0,1,.69-0.11l-1.49,1.94c-0.37.48-.74,1-1.08,1.47a0.74,0.74,0,0,1-.83.36" transform="translate(0 0)" style="fill:#dfa627"/><path d="M53.74,64.73c-0.48,1.09-1,2.16-1.42,3.23-0.26.59-.51,1.19-0.75,1.8a0.41,0.41,0,0,1-.48.34c-0.07-.07,0-0.15.05-0.21,0.66-1.62,1.35-3.23,2.07-4.83a0.46,0.46,0,0,1,.54-0.31" transform="translate(0 0)" style="fill:#dfa627"/><path d="M60.77,50.75c0.25-.39.48-0.77,0.72-1.14,0.44-.67.9-1.32,1.31-2a0.78,0.78,0,0,1,.83-0.39L63,48.15c-0.49.74-1,1.47-1.46,2.23a0.73,0.73,0,0,1-.77.38" transform="translate(0 0)" style="fill:#dfa627"/><path d="M90.26,54.54c-0.67,1.09-1.31,2.16-2,3.22a0.6,0.6,0,0,1-.56.1,0.33,0.33,0,0,1,.1-0.28c0.58-.93,1.17-1.84,1.73-2.78a0.51,0.51,0,0,1,.7-0.27" transform="translate(0 0)" style="fill:#dfa627"/><path d="M135.64,41.48a6.18,6.18,0,0,0-.27,1.84A1.35,1.35,0,0,1,135,43a0.12,0.12,0,0,1,0-.17,5.15,5.15,0,0,0,.34-2.14,0.48,0.48,0,0,1,.36.55c0.21-.21.3-0.08,0.38,0.11a1.94,1.94,0,0,1,0,1c0,0.29-.11.58-0.16,0.86,0,0.08,0,.17,0,0.26s0.16,0.17,0,.29-0.08,0-.1,0a0.5,0.5,0,0,1-.26-0.41c0.09-.47.16-0.94,0.24-1.41a0.45,0.45,0,0,0-.1-0.44" transform="translate(0 0)" style="fill:#dfa627"/><path d="M93.1,50.37l-1.6,2.32L91,53.47a0.23,0.23,0,0,1-.18.16,0.49,0.49,0,0,1-.37,0c-0.08-.1.07-0.2,0.13-0.3,0.62-.9,1.25-1.79,1.86-2.7a0.5,0.5,0,0,1,.68-0.22" transform="translate(0 0)" style="fill:#dfa627"/><path d="M131.68,38.19a1.3,1.3,0,0,1,0,.48,0.28,0.28,0,0,0,.11.31,0.12,0.12,0,0,1,0,.17,1.15,1.15,0,0,0-.17.92,7.67,7.67,0,0,0,0,1,0.38,0.38,0,0,0,.11.38c0.12,0.1,0,.25-0.13.27a0.33,0.33,0,0,1-.36-0.25,1.62,1.62,0,0,1-.07-0.58q0-.72,0-1.43a1.25,1.25,0,0,0,0-.23c0-.13-0.23-0.21-0.12-0.39a2.94,2.94,0,0,1,.57-0.61" transform="translate(0 0)" style="fill:#dfa627"/><path d="M84,65.64c-0.39.81-.77,1.6-1.16,2.38-0.16.31-.45,0.08-0.73,0.18l0.71-1.44,0.35-.7c0.24-.49.24-0.49,0.83-0.42" transform="translate(0 0)" style="fill:#dfa627"/><path d="M83.64,74.63h-3c-0.14,0-.19,0-0.14-0.19a0.69,0.69,0,0,1,.61-0.51c1-.19,1.72.4,2.57,0.61,0,0,0,.06,0,0.09" transform="translate(0 0)" style="fill:#dfa627"/><path d="M83.82,64.74c0.47-.88.89-1.69,1.34-2.49,0.14-.25.39,0,0.63-0.08-0.44.84-.85,1.65-1.28,2.44a0.91,0.91,0,0,1-.69.13" transform="translate(0 0)" style="fill:#dfa627"/><path d="M135,41.86l-0.53-.34a1.1,1.1,0,0,0,0,.64,0.41,0.41,0,0,0,.17.19c0.08,0,.22-0.13.22,0.06a0.38,0.38,0,0,1-.2.29,0.24,0.24,0,0,1-.3,0,0.56,0.56,0,0,1-.2-0.29,3,3,0,0,1,.11-2,0.29,0.29,0,0,1,.25-0.22,0.37,0.37,0,0,1,.34.26,2.09,2.09,0,0,1,.11,1.45m-0.33-1.39a1.4,1.4,0,0,0-.16.75,0.16,0.16,0,0,0,.16.14c0.07,0,.08-0.09.08-0.15a1.24,1.24,0,0,0-.08-0.74" transform="translate(0 0)" style="fill:#dfa627"/><path d="M93.3,49.44c0.57-.83,1.2-1.57,1.8-2.34a4,4,0,0,0,.32-0.41A0.43,0.43,0,0,1,96,46.51l-1.6,2.05a5.72,5.72,0,0,0-.46.63,0.52,0.52,0,0,1-.69.25" transform="translate(0 0)" style="fill:#dfa627"/><path d="M85.72,61.22l1.36-2.39a0.54,0.54,0,0,1,.53-0.06c0.07,0.06,0,.12,0,0.17-0.4.72-.82,1.44-1.22,2.17-0.16.29-.41,0.07-0.61,0.16Z" transform="translate(0 0)" style="fill:#dfa627"/><path d="M99.26,42.83l-1.18,1.31c-0.36.41-.74,0.82-1.08,1.25a0.49,0.49,0,0,1-.59.2,0.27,0.27,0,0,1,.14-0.26c0.68-.81,1.38-1.61,2.11-2.38a0.49,0.49,0,0,1,.6-0.12" transform="translate(0 0)" style="fill:#dfa627"/><path d="M60.17,74.59c0.38-.93.76-1.86,1.16-2.78a1.13,1.13,0,0,1,.57-0.4,0.38,0.38,0,0,1-.08.31c-0.36.87-.74,1.73-1.09,2.6a0.37,0.37,0,0,1-.56.26" transform="translate(0 0)" style="fill:#dfa627"/><path d="M137.19,45.45a0.66,0.66,0,0,1-.32-0.56s0-.08-0.07-0.07c-0.28,0-.28-0.19-0.3-0.36a1.65,1.65,0,0,1,0-.68,0.37,0.37,0,0,1,.22-0.33,0.39,0.39,0,0,1,.3.21,0.46,0.46,0,0,0-.17-0.69c-0.13,0-.13-0.07-0.12-0.16a0.17,0.17,0,0,1,.19-0.14,0.3,0.3,0,0,1,.27.2,1.81,1.81,0,0,1,.15,1.17c0,0.21-.09.42-0.14,0.63a1.42,1.42,0,0,0-.06.77m-0.31-.79A2.41,2.41,0,0,0,137,44a0.1,0.1,0,0,0-.07-0.13,0.09,0.09,0,0,0-.1.1,0.78,0.78,0,0,0,0,.68" transform="translate(0 0)" style="fill:#dfa627"/><path d="M132.6,39.75c0,0.56-.06,1.05-0.08,1.55a1.65,1.65,0,0,0,0,.19c0,0.12.2,0.28,0.05,0.33A1.15,1.15,0,0,1,132,41.7a0.15,0.15,0,0,1,0-.14,3.79,3.79,0,0,0,.17-1.57,1,1,0,0,0-.09-0.78c-0.06-.07,0-0.16.12-0.15a0.39,0.39,0,0,1,.43.45v0.23" transform="translate(0 0)" style="fill:#dfa627"/><path d="M79,30.81c-0.66.52-1.28,1-1.91,1.51a1.06,1.06,0,0,1-.8,0l0.79-.64a9.13,9.13,0,0,0,.79-0.62A1.17,1.17,0,0,1,79,30.81" transform="translate(0 0)" style="fill:#dfa627"/><path d="M82.51,28.39c-0.75.5-1.44,1-2.16,1.44a1.24,1.24,0,0,1-.75,0l0.76-.51c0.34-.23.7-0.44,1-0.69a1.42,1.42,0,0,1,1.14-.22" transform="translate(0 0)" style="fill:#dfa627"/><path d="M83.35,27.46A23.12,23.12,0,0,1,86,26.06a2,2,0,0,1,.61,0c0,0.14-.12.13-0.18,0.17-0.7.38-1.42,0.74-2.11,1.14a1.27,1.27,0,0,1-1,.11" transform="translate(0 0)" style="fill:#dfa627"/><path d="M137.66,46.18a0.86,0.86,0,0,1-.33-0.87,13,13,0,0,0,.37-1.84,1.3,1.3,0,0,0-.09-0.77,1.14,1.14,0,0,1,.36,1.23c-0.07.39-.16,0.78-0.23,1.18a1.82,1.82,0,0,0-.09,1.07" transform="translate(0 0)" style="fill:#dfa627"/><path d="M137.83,46.66l0.51,1a0.91,0.91,0,0,0,.24-0.24c-0.24-.08-0.24-0.08-0.08-0.26a0.13,0.13,0,0,0,0-.09,5.45,5.45,0,0,0-.17-1.53c0-.06-0.07-0.12,0-0.16s0.09,0,.12.1,0.06,0.1.12,0.08,0-.1,0-0.16,0-.14,0-0.16a0.13,0.13,0,0,1,.17.1,0.66,0.66,0,0,1,0,.35,2.06,2.06,0,0,0,0,1.34,3.66,3.66,0,0,1,0,.85,0.59,0.59,0,0,1-.13-0.26,0.26,0.26,0,0,0-.16.44,3.49,3.49,0,0,1,.33.72l-1.07-2.12,0,0m0.9,0.85a0.17,0.17,0,0,0,0-.24,0.16,0.16,0,0,0,0,.24" transform="translate(0 0)" style="fill:#dfa627"/><path d="M136.62,41.36a2.38,2.38,0,0,0,.13.94,1,1,0,0,1-.19.23,7.43,7.43,0,0,1-.23,1.27,1.83,1.83,0,0,1,0,.51,0.48,0.48,0,0,1-.3-0.58c0.06-.5.16-1,0.23-1.5a0.48,0.48,0,0,0,0-.25c-0.19-.35.09-0.44,0.32-0.63" transform="translate(0 0)" style="fill:#dfa627"/><path d="M101.71,40.27c-0.51.53-1,1.07-1.52,1.59a0.43,0.43,0,0,1-.4.05c0.49-.52,1-1.08,1.53-1.63a0.41,0.41,0,0,1,.4,0" transform="translate(0 0)" style="fill:#dfa627"/><path d="M104,38.28l-1.23,1.09a0.78,0.78,0,0,1-.58.06c0.49-.44.92-0.82,1.36-1.19a0.5,0.5,0,0,1,.45,0" transform="translate(0 0)" style="fill:#dfa627"/><path d="M111.13,33.36c-0.5.29-.94,0.56-1.4,0.8a1,1,0,0,1-.53-0.08l1.34-.79a0.77,0.77,0,0,1,.58.07" transform="translate(0 0)" style="fill:#dfa627"/><path d="M104.65,37.33l1.18-.93a0.53,0.53,0,0,1,.57,0l-1.22.95c-0.14.1-.17,0.09-0.52,0" transform="translate(0 0)" style="fill:#dfa627"/><path d="M87.93,25.16l2.13-.81a0.5,0.5,0,0,1,.32.08c-0.82.22-1.52,0.83-2.41,0.82l0-.09" transform="translate(0 0)" style="fill:#dfa627"/><path d="M113.57,32.16c-0.39.19-.78,0.39-1.18,0.56a0.66,0.66,0,0,1-.52-0.15L113,32a0.7,0.7,0,0,1,.57.14" transform="translate(0 0)" style="fill:#dfa627"/><path d="M114.42,31.35c0.65-.13,1.13-0.69,1.84-0.23-0.61.1-1.09,0.64-1.84,0.23" transform="translate(0 0)" style="fill:#dfa627"/><path d="M79.18,74.6c0.07-.17.14-0.34,0.21-0.51a0.87,0.87,0,0,1,.68-0.1,0.15,0.15,0,0,1,0,.15c-0.14.49-.26,0.55-0.89,0.45" transform="translate(0 0)" style="fill:#dfa627"/><path d="M108.47,35l-0.95.64a0.48,0.48,0,0,1-.5-0.11c0.5-.17.76-0.77,1.45-0.54" transform="translate(0 0)" style="fill:#dfa627"/><path d="M132.13,38.33c0-.14,0-0.3.19-0.32a0.45,0.45,0,0,1,.35.5c0,0.15,0,.32-0.21.3a0.41,0.41,0,0,1-.32-0.48" transform="translate(0 0)" style="fill:#dfa627"/><path d="M110.28,62.59c0-.06,0-0.19.17-0.16s-0.09.13,0,.2h0c-0.05-.06-0.08,0-0.11,0l-0.06-.05" transform="translate(0 0)" style="fill:#c3c4c6"/><path d="M110.46,62.44a0.2,0.2,0,0,1,.13-0.26c0.1,0.16,0,.2-0.13.26" transform="translate(0 0)" style="fill:#c3c4c6"/><path d="M101.91,25.83c0-.12.11,0,0.19-0.09a0.14,0.14,0,0,1-.18.1h0Z" transform="translate(0 0)" style="fill:#dfa627"/><path d="M102.38,25.7c0,0.08-.11.08-0.2,0a0.19,0.19,0,0,1,.2,0h0Z" transform="translate(0 0)" style="fill:#dfa627"/><path d="M122.25,39l0.18,0.2a0.32,0.32,0,0,1-.23-0.15l0.05-.05" transform="translate(0 0)" style="fill:#211915"/><path d="M118.6,39.44a0.27,0.27,0,0,1,.1.28l-0.15-.23,0.05-.05" transform="translate(0 0)" style="fill:#211915"/><path d="M110.15,62.79l0.13-.2,0.06,0.06,0,0.11h0l-0.12.08-0.05-.05" transform="translate(0 0)" style="fill:#c3c4c6"/><path d="M110,63l0.13-.2,0.05,0.05a0.32,0.32,0,0,1-.13.19L110,63" transform="translate(0 0)" style="fill:#c3c4c6"/><path d="M110,63.07l0-.08,0.05,0,0,0.08-0.06,0" transform="translate(0 0)" style="fill:#c3c4c6"/><path d="M124.27,59.77c1.36-3,2.7-6,4-9.06a0.3,0.3,0,0,1,.37-0.21,2.52,2.52,0,0,1,.92.28c0.21,0.11.24,0.21,0.11,0.42q-2.12,3.39-4.22,6.78l-1,1.54a0.35,0.35,0,0,1-.25.24" transform="translate(0 0)" style="fill:#211915"/><path d="M110,63.11l0-.08a0.31,0.31,0,0,0,.13-0.19l0.12-.08a0.35,0.35,0,0,1-.29.36" transform="translate(0 0)" style="fill:#211915"/><path d="M110.32,62.76l0-.11s0.06-.08.11,0,0,0.16-.14.13" transform="translate(0 0)" style="fill:#211915"/><path d="M128.74,41.09c0,0.08,0,.12,0,0.15s0,0.33-.15.35-0.19-.19-0.22-0.32a10.37,10.37,0,0,1-.27-2c0-.16,0-0.39.16-0.41s0.2,0.22.23,0.37a15.75,15.75,0,0,1,.24,1.88" transform="translate(0 0)" style="fill:#211915"/><path d="M134.65,40.47a1.24,1.24,0,0,1,.08.74c0,0.06,0,.15-0.08.15a0.16,0.16,0,0,1-.16-0.14,1.4,1.4,0,0,1,.16-0.75" transform="translate(0 0)" style="fill:#211915"/><path d="M136.88,44.66a0.78,0.78,0,0,1,0-.68,0.09,0.09,0,0,1,.1-0.1A0.1,0.1,0,0,1,137,44a2.41,2.41,0,0,1-.15.65" transform="translate(0 0)" style="fill:#211915"/><path d="M138.73,47.51a0.16,0.16,0,0,1,0-.24,0.17,0.17,0,0,1,0,.24" transform="translate(0 0)" style="fill:#211915"/></svg>