<svg id="Capa_1" data-name="Capa 1" xmlns="http://www.w3.org/2000/svg" viewBox="0 0 24.97 24.91"><title>Sin título-7</title><path d="M10.09,15.95c2.24,2.22,4.83,4.34,5.85,3.32,1.46-1.47,2.35-2.74,5.59-.16s0.76,4.31-.65,5.74C19.25,26.48,13.15,25,7.11,19s-7.62-12.09-6-13.73c1.41-1.42,3.13-3.9,5.73-.69s1.33,4.12-.12,5.59C5.71,11.15,7.85,13.72,10.09,15.95ZM13.34,5.34a1.44,1.44,0,0,0-1.15.37,1.31,1.31,0,0,0,0,1.84,1.46,1.46,0,0,0,.73.37,6,6,0,0,1,3.43,1.76,6,6,0,0,1,1.76,3.43,1.46,1.46,0,0,0,.37.73,1.32,1.32,0,0,0,1.84,0,1.44,1.44,0,0,0,.37-1.15A8.89,8.89,0,0,0,13.34,5.34Zm6.34,1c2.45,2.45,3.49,5.23,3.15,7.48A1.47,1.47,0,0,0,23.18,15,1.31,1.31,0,0,0,25,15a1.64,1.64,0,0,0,.38-0.83c0.28-1.95-.07-5.87-3.89-9.68S13.78,0.34,11.84.62A1.64,1.64,0,0,0,11,1a1.31,1.31,0,0,0,0,1.85,1.48,1.48,0,0,0,1.18.35C14.45,2.86,17.22,3.9,19.68,6.35Z" transform="translate(-0.52 -0.54)" style="fill:#666"/></svg>