<svg id="Capa_1" data-name="Capa 1" xmlns="http://www.w3.org/2000/svg" viewBox="0 0 25.11 25.11"><title>Sin título-3</title><path d="M25.55,13A12.55,12.55,0,0,1,6.34,23.64C5.4,23.05,1.7,25.89.95,25.08c-0.5-.54,1.89-4.68,1.48-5.31A12.55,12.55,0,1,1,25.55,13Z" transform="translate(-0.45 -0.45)" style="fill:#6fba2c"/><path id="WhatsApp" d="M13.1,1a12,12,0,0,0-12,11.92,11.81,11.81,0,0,0,2.29,7l-1.5,4.43,4.62-1.47a12,12,0,0,0,18.63-10A12,12,0,0,0,13.1,1Z" transform="translate(-0.45 -0.45)" style="fill:#80b82b"/><path d="M20.17,16.1a1.77,1.77,0,0,0-.67-0.41c-0.35-.17-2.07-1-2.39-1.13a0.55,0.55,0,0,0-.79.17c-0.23.35-.9,1.13-1.11,1.36a0.54,0.54,0,0,1-.76.09,9.65,9.65,0,0,1-2.82-1.73,10.46,10.46,0,0,1-1.95-2.41,0.5,0.5,0,0,1,.15-0.71c0.16-.16.35-0.41,0.53-0.61a2.31,2.31,0,0,0,.35-0.58,0.63,0.63,0,0,0,0-.61C10.6,9.37,9.9,7.66,9.6,7S9,6.39,8.82,6.39s-0.44,0-.67,0a1.29,1.29,0,0,0-.94.43A3.89,3.89,0,0,0,6,9.69a6.73,6.73,0,0,0,1.43,3.59c0.17,0.23,2.42,3.86,6,5.25s3.56,0.93,4.21.87A3.55,3.55,0,0,0,20,17.75,2.88,2.88,0,0,0,20.17,16.1Z" transform="translate(-0.45 -0.45)" style="fill:#fff"/></svg>